<svg xmlns="http://www.w3.org/2000/svg" version="1.1" xmlns:xlink="http://www.w3.org/1999/xlink" xmlns:svgjs="http://svgjs.dev/svgjs" width="1500" height="473" viewBox="0 0 1500 473"><g transform="matrix(1,0,0,1,-0.9084522071641459,-0.7271640713543945)"><svg viewBox="0 0 396 125" data-background-color="#fafafa" preserveAspectRatio="xMidYMid meet" height="473" width="1500" xmlns="http://www.w3.org/2000/svg" xmlns:xlink="http://www.w3.org/1999/xlink"><g id="tight-bounds" transform="matrix(1,0,0,1,0.24008861730862918,0.19216809496680298)"><svg viewBox="0 0 395.52 124.6156638100664" height="124.6156638100664" width="395.52"><g><svg viewBox="0 0 395.52 124.6156638100664" height="124.6156638100664" width="395.52"><g><svg viewBox="0 0 395.52 124.6156638100664" height="124.6156638100664" width="395.52"><g id="textblocktransform"><svg viewBox="0 0 395.52 124.6156638100664" height="124.6156638100664" width="395.52" id="textblock"><g><svg viewBox="0 0 395.52 87.7342913168536" height="87.7342913168536" width="395.52"><path d="M394.594 18.817C392.735 9.711 387.435 7.179 387.435 7.179 371.165-2.201 350.86-0.179 332.619 1.168 300.414 1.223 268.339 3.227 236.208 4.301 168.767 4.465 100.749 1.769 33.643 8.417 27.339 10.457-6.54 8.818 1.121 19.983 3.129 24.627 10.456 29.782 10.232 34.044 11.236 34.791 12.631 33.079 13.226 34.153 15.309 37.049 18.711 35.683 21.501 37.395 17.614 41.967 20.403 45.773 23.062 49.762 18.377 50.8 12.371 50.309 9.675 53.751 9.396 56.246 7.89 55.773 6.235 55.663 5.026 55.591 2.59 55.864 2.999 56.647 4.394 59.324-1.594 60.872 2.162 63.495-0.422 66.337 3.948 68.795 3.353 71.873 3.278 72.493 3.687 73.021 4.338 73.167 7.22 73.95 3.018 75.48 3.464 77.137 33.029 88.466 65.104 80.634 95.394 85.843 103.259 82.201 97.346 87.136 100.489 86.371 102.943 85.479 104.728 89.176 107.499 87.082 107.927 86.481 107.276 85.06 108.8 85.333 109.6 85.479 110.307 85.443 110.418 84.605 110.586 83.348 109.117 84.131 108.726 83.476 112.947 80.161 111.906 88.047 115.866 87.719 115.68 86.754 114.528 85.37 116.889 85.552 119.232 84.168 119.306 83.02 121.389 86.135 121.463 86.809 121.835 87.282 122.43 87.61 128.938 84.222 135.409 88.812 142.233 87.282 146.417 85.607 150.433 88.193 154.672 87.555 156.16 87.045 157.666 86.135 159.098 87.665 176.632 87.992 195.319 86.626 211.943 87.719 256.364 85.679 303.836 88.557 350.674 85.862 361.719 84.823 373.192 83.348 383.958 82.164 383.958 82.164 392.679 78.922 392.679 64.351S394.538 51.602 394.817 40C395.096 28.398 396.398 27.924 394.538 18.817Z" opacity="1" fill="#a3847f" data-fill-palette-color="tertiary"></path><g transform="matrix(1,0,0,1,55.76832,26.068561146666667)"><svg width="283.98335999999995" viewBox="2.05 -35.99 346.66860783938085 43.46" height="35.597169023520266" data-palette-color="#fafafa"><g transform="matrix(1,0,0,1,0,0)"><g><svg width="18.442762374877933" viewBox="3.16 -36.36 77.69 36.36" height="8.63134765625" data-palette-color="#fafafa" id="scriptelement" x="330.27584546450294" y="-35.99"><path d="M3.16-36.36L10.85-36.36 10.85 0 3.16 0 3.16-36.36ZM32.72 0L17.19 0 17.19-36.36 31.74-36.36Q35.76-36.36 38.44-35.17 41.12-33.98 42.47-31.88 43.82-29.78 43.82-27.04L43.82-27.04Q43.82-24.91 42.97-23.3 42.11-21.7 40.63-20.68 39.15-19.66 37.25-19.23L37.25-19.23 37.25-18.87Q39.33-18.79 41.15-17.7 42.97-16.62 44.1-14.68 45.24-12.73 45.24-10.05L45.24-10.05Q45.24-7.16 43.81-4.89 42.38-2.63 39.59-1.31 36.81 0 32.72 0L32.72 0ZM24.87-15.94L24.87-6.29 31.14-6.29Q34.35-6.29 35.83-7.52 37.3-8.75 37.3-10.81L37.3-10.81Q37.3-12.32 36.57-13.48 35.85-14.63 34.51-15.29 33.17-15.94 31.32-15.94L31.32-15.94 24.87-15.94ZM24.87-30.15L24.87-21.15 30.57-21.15Q32.15-21.15 33.39-21.71 34.62-22.27 35.34-23.3 36.06-24.33 36.06-25.76L36.06-25.76Q36.06-27.73 34.67-28.94 33.27-30.15 30.71-30.15L30.71-30.15 24.87-30.15ZM57.91 0L50.23 0 50.23-36.36 57.91-36.36 57.91-20.33 58.39-20.33 71.48-36.36 80.69-36.36 67.2-20.08 80.85 0 71.66 0 61.7-14.95 57.91-10.33 57.91 0Z" opacity="1" transform="matrix(1,0,0,1,0,0)" fill="#fafafa" class="undefined-123" data-fill-palette-color="quaternary" id="yy-123"></path></svg></g></g><path d="M40.67-17.63L40.67-17.63Q40.67-13.38 39.21-9.97 37.74-6.57 35.16-4.2 32.57-1.83 29.03-0.56 25.49 0.71 21.36 0.71L21.36 0.71Q17.24 0.71 13.7-0.56 10.16-1.83 7.57-4.2 4.98-6.57 3.52-9.97 2.05-13.38 2.05-17.63L2.05-17.63Q2.05-21.95 3.5-25.35 4.96-28.76 7.53-31.12 10.11-33.47 13.65-34.73 17.19-35.99 21.36-35.99L21.36-35.99Q25.54-35.99 29.08-34.73 32.62-33.47 35.19-31.12 37.77-28.76 39.22-25.35 40.67-21.95 40.67-17.63ZM30.81-17.63L30.81-17.63Q30.81-19.24 30.66-20.92 30.52-22.61 30.13-24.19 29.74-25.78 29.06-27.17 28.39-28.56 27.34-29.6 26.29-30.64 24.82-31.24 23.34-31.84 21.36-31.84L21.36-31.84Q19.36-31.84 17.87-31.24 16.38-30.64 15.33-29.61 14.28-28.59 13.62-27.2 12.96-25.81 12.59-24.23 12.21-22.66 12.06-20.96 11.91-19.26 11.91-17.63L11.91-17.63Q11.91-16.02 12.06-14.33 12.21-12.65 12.6-11.07 12.99-9.5 13.66-8.11 14.33-6.71 15.38-5.68 16.43-4.64 17.91-4.03 19.38-3.42 21.36-3.42L21.36-3.42Q23.29-3.42 24.73-4.04 26.17-4.66 27.22-5.73 28.27-6.79 28.97-8.19 29.66-9.59 30.07-11.17 30.47-12.74 30.64-14.4 30.81-16.06 30.81-17.63ZM56.39-13.13L56.39 0 46.7 0 46.7-35.16 63.99-35.16Q66.43-35.16 68.7-34.58 70.97-34.01 72.71-32.78 74.46-31.54 75.5-29.59 76.54-27.64 76.54-24.85L76.54-24.85Q76.54-22.68 75.62-20.76 74.7-18.85 73.18-17.35 71.65-15.84 69.68-14.86 67.7-13.87 65.57-13.55L65.57-13.55Q66.53-11.94 67.56-10.5 68.6-9.06 69.66-7.8 70.73-6.54 71.77-5.48 72.82-4.42 73.78-3.54L73.78-3.54Q76.02-1.49 78.22 0L78.22 0 66.14 0Q64.67-1.39 63.35-3.34L63.35-3.34Q62.23-5 61.09-7.46 59.96-9.91 59.35-13.13L59.35-13.13 56.39-13.13ZM66.7-24.85L66.7-24.85Q66.7-28.39 64.98-30.05 63.25-31.71 59.81-31.71L59.81-31.71 56.39-31.71 56.39-16.46 59.81-16.46Q61.64-16.46 62.95-17.15 64.26-17.85 65.09-19.01 65.92-20.17 66.31-21.68 66.7-23.19 66.7-24.85ZM108.03-4.49L108.03 0 82.78 0 82.78-35.16 108.03-35.16 108.03-30.66 92.48-30.66 92.48-19.8 104.49-19.8 104.49-15.33 92.48-15.33 92.48-4.49 108.03-4.49ZM121.5-3.66L121.5-3.66Q121.5-2.73 121.16-1.92 120.82-1.1 120.21-0.5 119.6 0.1 118.79 0.45 117.99 0.81 117.06 0.81L117.06 0.81Q116.13 0.81 115.32 0.45 114.52 0.1 113.91-0.5 113.3-1.1 112.96-1.92 112.61-2.73 112.61-3.66L112.61-3.66Q112.61-4.57 112.96-5.38 113.3-6.2 113.91-6.8 114.52-7.4 115.32-7.75 116.13-8.11 117.06-8.11L117.06-8.11Q117.99-8.11 118.79-7.75 119.6-7.4 120.21-6.8 120.82-6.2 121.16-5.38 121.5-4.57 121.5-3.66ZM164.74-17.63L164.74-17.63Q164.74-13.38 163.27-9.97 161.81-6.57 159.22-4.2 156.63-1.83 153.09-0.56 149.55 0.71 145.42 0.71L145.42 0.71Q141.3 0.71 137.76-0.56 134.22-1.83 131.63-4.2 129.04-6.57 127.58-9.97 126.11-13.38 126.11-17.63L126.11-17.63Q126.11-21.95 127.57-25.35 129.02-28.76 131.59-31.12 134.17-33.47 137.71-34.73 141.25-35.99 145.42-35.99L145.42-35.99Q149.6-35.99 153.14-34.73 156.68-33.47 159.26-31.12 161.83-28.76 163.28-25.35 164.74-21.95 164.74-17.63ZM154.87-17.63L154.87-17.63Q154.87-19.24 154.73-20.92 154.58-22.61 154.19-24.19 153.8-25.78 153.13-27.17 152.46-28.56 151.41-29.6 150.36-30.64 148.88-31.24 147.4-31.84 145.42-31.84L145.42-31.84Q143.42-31.84 141.93-31.24 140.44-30.64 139.39-29.61 138.34-28.59 137.69-27.2 137.03-25.81 136.65-24.23 136.27-22.66 136.12-20.96 135.98-19.26 135.98-17.63L135.98-17.63Q135.98-16.02 136.12-14.33 136.27-12.65 136.66-11.07 137.05-9.5 137.72-8.11 138.39-6.71 139.44-5.68 140.49-4.64 141.97-4.03 143.45-3.42 145.42-3.42L145.42-3.42Q147.35-3.42 148.79-4.04 150.23-4.66 151.28-5.73 152.33-6.79 153.03-8.19 153.73-9.59 154.13-11.17 154.53-12.74 154.7-14.4 154.87-16.06 154.87-17.63ZM196.01-4.47L196.01 0 170.76 0 170.76-35.16 180.46-35.16 180.46-4.47 196.01-4.47ZM201.94-35.16L209.04-35.16Q208.38-33.18 207.9-31.07 207.41-28.96 207.09-26.84 206.77-24.73 206.61-22.68 206.45-20.63 206.45-18.8L206.45-18.8Q206.45-17.46 206.47-15.78 206.48-14.11 206.66-12.38 206.85-10.64 207.26-9 207.68-7.35 208.49-6.05 209.31-4.76 210.59-3.98 211.87-3.2 213.78-3.2L213.78-3.2Q215.46-3.2 216.67-3.77 217.88-4.35 218.72-5.32 219.57-6.3 220.07-7.57 220.57-8.84 220.85-10.23 221.13-11.62 221.21-13.05 221.3-14.48 221.3-15.77L221.3-15.77 221.3-35.16 230.99-35.16 230.99-17.29Q230.99-13.45 229.77-10.16 228.55-6.86 226.33-4.43 224.11-2 220.96-0.62 217.81 0.76 213.97 0.76L213.97 0.76Q211.34 0.76 209.07 0.01 206.8-0.73 204.9-2.04 203.01-3.34 201.54-5.14 200.06-6.93 199.07-9.06 198.08-11.18 197.57-13.54 197.06-15.89 197.1-18.31L197.1-18.31 197.1-18.8Q197.13-20.75 197.49-22.84 197.86-24.93 198.48-27.03 199.11-29.13 199.99-31.19 200.86-33.25 201.94-35.16L201.94-35.16ZM259.7-22.46L254.06 0 245.2 0 235.97-35.16 245.86-35.16 251.69-10.21 256.87-35.16 265.75-35.16 271.42-9.57 277.79-35.16 283.77-35.16 273.54 0 264.66 0 259.7-22.46ZM321.05-16.82L321.05-16.82 321.05-16.36Q321-14.31 320.62-12.11 320.24-9.91 319.56-7.71 318.88-5.52 317.92-3.37 316.97-1.22 315.79 0.74 314.6 2.71 313.24 4.43 311.87 6.15 310.36 7.47L310.36 7.47 306.72 5.37Q307.57 3.93 308.27 2.23 308.96 0.54 309.53-1.32 310.09-3.17 310.49-5.13 310.89-7.08 311.16-9.01 311.43-10.94 311.56-12.81 311.7-14.67 311.7-16.36L311.7-16.36Q311.7-17.68 311.69-19.35 311.67-21.02 311.49-22.75 311.31-24.49 310.89-26.14 310.48-27.78 309.66-29.08 308.84-30.37 307.56-31.15 306.28-31.93 304.37-31.93L304.37-31.93Q302.69-31.93 301.48-31.36 300.27-30.79 299.43-29.82 298.59-28.86 298.09-27.59 297.59-26.32 297.31-24.91 297.03-23.51 296.94-22.08 296.86-20.65 296.86-19.38L296.86-19.38 296.86-12.57 307.38-12.57 307.38-8.54 296.86-8.54 296.86 0 287.16 0 287.16-17.87Q287.16-21.7 288.38-25 289.6-28.3 291.84-30.73 294.07-33.15 297.21-34.53 300.35-35.91 304.2-35.91L304.2-35.91Q306.82-35.91 309.1-35.17 311.38-34.42 313.26-33.12 315.14-31.81 316.62-30.02 318.1-28.22 319.08-26.1 320.07-23.97 320.59-21.61 321.1-19.24 321.05-16.82Z" opacity="1" transform="matrix(1,0,0,1,0,0)" fill="#fafafa" class="wordmark-text-0" data-fill-palette-color="quaternary" id="text-0"></path></svg></g></svg></g><g transform="matrix(1,0,0,1,0,96.13792859125017)"><svg viewBox="0 0 330.7027139142813 28.477735218816214" height="28.477735218816214" width="330.7027139142813"><g transform="matrix(1,0,0,1,0,0)"><svg width="330.7027139142813" viewBox="4 -38.7 577.08 49.7" height="28.477735218816214" data-palette-color="#7f707f"><path d="M4-34.5L14.85-34.5Q19.65-34.5 22.45-32.33 25.25-30.15 25.25-26.5L25.25-26.5Q25.25-20.65 20.45-18.35L20.45-18.35Q26.95-16.1 26.95-10.05L26.95-10.05Q26.95-5.5 23.05-2.48 19.15 0.55 13.25 0.55L13.25 0.55Q10.15 0.55 4 0L4 0 4.6-12.15 4-34.5ZM14.2-14.85L14.2-14.85 10.15-14.85 10.1-13 10.45-4.85Q13.35-4.6 14.9-4.6L14.9-4.6Q17.55-4.6 19.03-5.93 20.5-7.25 20.5-9.8 20.5-12.35 19-13.6 17.5-14.85 14.2-14.85ZM13.05-29.45L13.05-29.45 10.6-29.45 10.3-19.7 13.55-19.7Q16.1-19.7 17.45-21.08 18.8-22.45 18.8-25L18.8-25Q18.8-29.45 13.05-29.45ZM31.35-24.15L31.35-24.15 37.4-25.45Q37.85-21.6 38-18.15L38-18.15Q42.55-25.2 46.55-25.2L46.55-25.2 46-17.4Q43.1-17.4 41.42-16.88 39.75-16.35 38-14.8L38-14.8 38-13 38.55-1.25 31.85 0 32.45-12.15Q32.25-18.85 31.35-24.15ZM49.7-24.2L56.4-25.45 55.8-13 56.34-1.25 49.65 0 50.25-12.15 49.7-24.2ZM49.34-32.77Q49.34-34.45 50.65-35.77 51.95-37.1 53.65-37.1 55.34-37.1 56.25-36.18 57.15-35.25 57.15-33.4 57.15-31.55 55.87-30.23 54.59-28.9 52.92-28.9 51.25-28.9 50.3-30 49.34-31.1 49.34-32.77ZM76.39-12.65Q76.39-16.1 75.79-17.25 75.19-18.4 72.99-18.4 70.79-18.4 67.99-16.65L67.99-16.65 67.99-13 68.54-1.25 61.84 0 62.44-12.15Q62.24-18.85 61.34-24.15L61.34-24.15 67.39-25.45Q67.74-22.55 67.89-19.8L67.89-19.8Q68.64-20.8 69.59-21.78 70.54-22.75 72.59-23.98 74.64-25.2 76.92-25.2 79.19-25.2 80.74-23.43 82.29-21.65 82.29-18.6L82.29-18.6 81.99-13 82.54-1 75.79 0.25 76.39-12.65ZM86.29 4.95L86.29 4.95Q86.29 0.55 94.49-1.95L94.49-1.95Q92.54-2.95 92.54-4.55L92.54-4.55Q92.54-5.2 93.04-5.85 93.54-6.5 94.49-7.2L94.49-7.2 94.49-7.6Q90.89-7.6 88.77-9.6 86.64-11.6 86.64-14.95L86.64-14.95Q86.64-19.3 90.19-22.53 93.74-25.75 98.59-25.75L98.59-25.75Q99.84-25.75 102.24-25.25 104.64-24.75 106.94-24.75L106.94-24.75 110.79-24.75 110.29-20.4 106.54-20.85Q107.04-19.4 107.04-17.55 107.04-15.7 106.17-13.88 105.29-12.05 104.07-10.95 102.84-9.85 101.62-9.03 100.39-8.2 99.52-7.58 98.64-6.95 98.64-6.45L98.64-6.45Q98.64-5.5 100.64-4.8L100.64-4.8Q105.94-2.65 107.82-1.15 109.69 0.35 109.69 2.55L109.69 2.55Q109.69 6.25 105.97 8.63 102.24 11 97.09 11 91.94 11 89.12 9.35 86.29 7.7 86.29 4.95ZM101.39-16.05L101.39-16.05Q101.39-18.5 100.29-19.65 99.19-20.8 96.84-20.8L96.84-20.8Q92.29-20.8 92.29-16.32 92.29-11.85 97.14-11.85L97.14-11.85Q101.39-11.85 101.39-16.05ZM103.19 3.3L103.19 3.3Q103.19 2.4 102.24 1.63 101.29 0.85 98.84-0.2L98.84-0.2Q95.19 0.8 93.82 1.65 92.44 2.5 92.44 3.75 92.44 5 93.82 5.78 95.19 6.55 97.64 6.55 100.09 6.55 101.64 5.65 103.19 4.75 103.19 3.3ZM113.44-24.2L120.14-25.45 119.54-13 120.09-1.25 113.39 0 113.99-12.15 113.44-24.2ZM113.09-32.77Q113.09-34.45 114.39-35.77 115.69-37.1 117.39-37.1 119.09-37.1 119.99-36.18 120.89-35.25 120.89-33.4 120.89-31.55 119.61-30.23 118.34-28.9 116.66-28.9 114.99-28.9 114.04-30 113.09-31.1 113.09-32.77ZM140.14-12.65Q140.14-16.1 139.54-17.25 138.94-18.4 136.74-18.4 134.54-18.4 131.74-16.65L131.74-16.65 131.74-13 132.29-1.25 125.59 0 126.19-12.15Q125.99-18.85 125.09-24.15L125.09-24.15 131.14-25.45Q131.49-22.55 131.64-19.8L131.64-19.8Q132.39-20.8 133.34-21.78 134.29-22.75 136.34-23.98 138.39-25.2 140.66-25.2 142.94-25.2 144.49-23.43 146.04-21.65 146.04-18.6L146.04-18.6 145.74-13 146.29-1 139.54 0.25 140.14-12.65ZM150.03 4.95L150.03 4.95Q150.03 0.55 158.23-1.95L158.23-1.95Q156.28-2.95 156.28-4.55L156.28-4.55Q156.28-5.2 156.78-5.85 157.28-6.5 158.23-7.2L158.23-7.2 158.23-7.6Q154.63-7.6 152.51-9.6 150.38-11.6 150.38-14.95L150.38-14.95Q150.38-19.3 153.93-22.53 157.48-25.75 162.33-25.75L162.33-25.75Q163.58-25.75 165.98-25.25 168.38-24.75 170.68-24.75L170.68-24.75 174.53-24.75 174.03-20.4 170.28-20.85Q170.78-19.4 170.78-17.55 170.78-15.7 169.91-13.88 169.03-12.05 167.81-10.95 166.58-9.85 165.36-9.03 164.13-8.2 163.26-7.58 162.38-6.95 162.38-6.45L162.38-6.45Q162.38-5.5 164.38-4.8L164.38-4.8Q169.68-2.65 171.56-1.15 173.43 0.35 173.43 2.55L173.43 2.55Q173.43 6.25 169.71 8.63 165.98 11 160.83 11 155.68 11 152.86 9.35 150.03 7.7 150.03 4.95ZM165.13-16.05L165.13-16.05Q165.13-18.5 164.03-19.65 162.93-20.8 160.58-20.8L160.58-20.8Q156.03-20.8 156.03-16.32 156.03-11.85 160.88-11.85L160.88-11.85Q165.13-11.85 165.13-16.05ZM166.93 3.3L166.93 3.3Q166.93 2.4 165.98 1.63 165.03 0.85 162.58-0.2L162.58-0.2Q158.93 0.8 157.56 1.65 156.18 2.5 156.18 3.75 156.18 5 157.56 5.78 158.93 6.55 161.38 6.55 163.83 6.55 165.38 5.65 166.93 4.75 166.93 3.3ZM192.03 11L185.58 9.65 190.73-1.9 187.03-12 181.98-24.15 188.63-25.4 191.83-14.75 193.48-9.7 194.13-9.7 195.33-13.35 198.93-25.45 205.08-24.7 196.23-1.45 192.03 11ZM206.63-10.45Q206.63-16.85 210.08-21.3 213.53-25.75 218.15-25.75 222.78-25.75 225.35-22.75 227.93-19.75 227.93-14.8L227.93-14.8Q227.93-8.2 224.6-3.83 221.28 0.55 216.23 0.55L216.23 0.55Q212.08 0.55 209.35-2.58 206.63-5.7 206.63-10.45L206.63-10.45ZM222.33-12.2L222.33-12.2Q222.33-19.45 217.38-19.45L217.38-19.45Q212.23-19.45 212.23-12.65L212.23-12.65Q212.23-9.1 213.68-7.1 215.13-5.1 217.5-5.1 219.88-5.1 221.1-6.93 222.33-8.75 222.33-12.2ZM238.22 0L238.22 0Q235.52 0 233.85-1.78 232.17-3.55 232.17-6.45L232.17-6.45 232.47-12.2 231.92-24.2 238.62-25.45 237.97-10.25Q237.97-8.1 238.75-7.1 239.52-6.1 241.22-6.1 242.92-6.1 245.92-7.8L245.92-7.8 245.92-10.8 245.37-23.95 252.12-25.2 251.52-12.7 251.57-8.6Q251.57-5.4 253.22-2.15L253.22-2.15 248.02 0.15Q246.37-3.1 246.02-5.05L246.02-5.05Q241.52 0 238.22 0ZM257.17-24.15L257.17-24.15 263.22-25.45Q263.67-21.6 263.82-18.15L263.82-18.15Q268.37-25.2 272.37-25.2L272.37-25.2 271.82-17.4Q268.92-17.4 267.25-16.88 265.57-16.35 263.82-14.8L263.82-14.8 263.82-13 264.37-1.25 257.67 0 258.27-12.15Q258.07-18.85 257.17-24.15ZM282.26-24.2L285.17-24.2 285.17-29.65 291.92-30.95 291.26-24.2 297.31-24.2 296.76-20.1 291.06-20.1 290.81-9.65Q290.81-7.3 291.26-6.53 291.71-5.75 292.92-5.75 294.12-5.75 296.12-6.3L296.12-6.3 296.42-2.75Q293.12 0 290.62 0 288.12 0 286.51-1.83 284.92-3.65 284.92-6.6L284.92-6.6 285.21-12.2 285.17-20.1 281.71-20.1 282.26-24.2ZM315.56-12.65Q315.56-16.1 314.96-17.25 314.36-18.4 312.16-18.4 309.96-18.4 307.16-16.65L307.16-16.65 307.16-13 307.71-1.25 300.96 0 301.56-12.15 300.96-37.45 307.81-38.7 307.16-25.75 307.16-19.9Q307.91-20.9 308.86-21.85 309.81-22.8 311.81-24 313.81-25.2 316.09-25.2 318.36-25.2 319.91-23.43 321.46-21.65 321.46-18.6L321.46-18.6 321.16-13 321.71-1 314.96 0.25 315.56-12.65ZM325.71-10.45Q325.71-16.85 329.16-21.3 332.61-25.75 337.24-25.75 341.86-25.75 344.44-22.75 347.01-19.75 347.01-14.8L347.01-14.8Q347.01-8.2 343.69-3.83 340.36 0.55 335.31 0.55L335.31 0.55Q331.16 0.55 328.44-2.58 325.71-5.7 325.71-10.45L325.71-10.45ZM341.41-12.2L341.41-12.2Q341.41-19.45 336.46-19.45L336.46-19.45Q331.31-19.45 331.31-12.65L331.31-12.65Q331.31-9.1 332.76-7.1 334.21-5.1 336.58-5.1 338.96-5.1 340.19-6.93 341.41-8.75 341.41-12.2ZM357.31 0L357.31 0Q354.61 0 352.93-1.78 351.26-3.55 351.26-6.45L351.26-6.45 351.56-12.2 351.01-24.2 357.71-25.45 357.06-10.25Q357.06-8.1 357.83-7.1 358.61-6.1 360.31-6.1 362.01-6.1 365.01-7.8L365.01-7.8 365.01-10.8 364.46-23.95 371.21-25.2 370.61-12.7 370.66-8.6Q370.66-5.4 372.31-2.15L372.31-2.15 367.11 0.15Q365.46-3.1 365.11-5.05L365.11-5.05Q360.61 0 357.31 0ZM375.06 4.95L375.06 4.95Q375.06 0.55 383.26-1.95L383.26-1.95Q381.31-2.95 381.31-4.55L381.31-4.55Q381.31-5.2 381.81-5.85 382.31-6.5 383.26-7.2L383.26-7.2 383.26-7.6Q379.66-7.6 377.53-9.6 375.41-11.6 375.41-14.95L375.41-14.95Q375.41-19.3 378.96-22.53 382.51-25.75 387.36-25.75L387.36-25.75Q388.61-25.75 391.01-25.25 393.41-24.75 395.71-24.75L395.71-24.75 399.56-24.75 399.06-20.4 395.31-20.85Q395.81-19.4 395.81-17.55 395.81-15.7 394.93-13.88 394.06-12.05 392.83-10.95 391.61-9.85 390.38-9.03 389.16-8.2 388.28-7.58 387.41-6.95 387.41-6.45L387.41-6.45Q387.41-5.5 389.41-4.8L389.41-4.8Q394.71-2.65 396.58-1.15 398.46 0.35 398.46 2.55L398.46 2.55Q398.46 6.25 394.73 8.63 391.01 11 385.86 11 380.71 11 377.88 9.35 375.06 7.7 375.06 4.95ZM390.16-16.05L390.16-16.05Q390.16-18.5 389.06-19.65 387.96-20.8 385.61-20.8L385.61-20.8Q381.06-20.8 381.06-16.32 381.06-11.85 385.91-11.85L385.91-11.85Q390.16-11.85 390.16-16.05ZM391.96 3.3L391.96 3.3Q391.96 2.4 391.01 1.63 390.06 0.85 387.61-0.2L387.61-0.2Q383.96 0.8 382.58 1.65 381.21 2.5 381.21 3.75 381.21 5 382.58 5.78 383.96 6.55 386.41 6.55 388.86 6.55 390.41 5.65 391.96 4.75 391.96 3.3ZM416.8-12.65Q416.8-16.1 416.2-17.25 415.6-18.4 413.4-18.4 411.2-18.4 408.4-16.65L408.4-16.65 408.4-13 408.95-1.25 402.2 0 402.8-12.15 402.2-37.45 409.05-38.7 408.4-25.75 408.4-19.9Q409.15-20.9 410.1-21.85 411.05-22.8 413.05-24 415.05-25.2 417.33-25.2 419.6-25.2 421.15-23.43 422.7-21.65 422.7-18.6L422.7-18.6 422.4-13 422.95-1 416.2 0.25 416.8-12.65ZM427.5-24.2L430.4-24.2 430.4-29.65 437.15-30.95 436.5-24.2 442.55-24.2 442-20.1 436.3-20.1 436.05-9.65Q436.05-7.3 436.5-6.53 436.95-5.75 438.15-5.75 439.35-5.75 441.35-6.3L441.35-6.3 441.65-2.75Q438.35 0 435.85 0 433.35 0 431.75-1.83 430.15-3.65 430.15-6.6L430.15-6.6 430.45-12.2 430.4-20.1 426.95-20.1 427.5-24.2ZM453.75-4.65L453.75-4.65Q456.35-4.65 456.35-6.95L456.35-6.95Q456.35-7.75 455.22-8.45 454.1-9.15 452.47-9.85 450.85-10.55 449.22-11.43 447.6-12.3 446.47-13.85 445.35-15.4 445.35-17.4L445.35-17.4Q445.35-20.75 448.3-23.25 451.25-25.75 455.1-25.75L455.1-25.75Q456.9-25.75 458.62-25.33 460.35-24.9 461.95-24L461.95-24 458.6-17.9Q458.25-18.2 457.7-18.65 457.15-19.1 455.62-19.83 454.1-20.55 452.92-20.55 451.75-20.55 451.12-20.03 450.5-19.5 450.5-18.57 450.5-17.65 452.22-16.73 453.95-15.8 456-15.03 458.05-14.25 459.77-12.48 461.5-10.7 461.5-8.25L461.5-8.25Q461.5-4.75 458.62-2.1 455.75 0.55 452 0.55L452 0.55Q449.6 0.55 447.52-0.5 445.45-1.55 444.55-2.6L444.55-2.6 443.65-3.65 447.6-8.25Q447.9-7.85 448.45-7.25 449-6.65 450.62-5.65 452.25-4.65 453.75-4.65ZM472.64-24.2L475.54-24.2 475.54-29.65 482.29-30.95 481.64-24.2 487.69-24.2 487.14-20.1 481.44-20.1 481.19-9.65Q481.19-7.3 481.64-6.53 482.09-5.75 483.29-5.75 484.49-5.75 486.49-6.3L486.49-6.3 486.79-2.75Q483.49 0 480.99 0 478.49 0 476.89-1.83 475.29-3.65 475.29-6.6L475.29-6.6 475.59-12.2 475.54-20.1 472.09-20.1 472.64-24.2ZM489.84-10.45Q489.84-16.85 493.29-21.3 496.74-25.75 501.37-25.75 505.99-25.75 508.56-22.75 511.14-19.75 511.14-14.8L511.14-14.8Q511.14-8.2 507.81-3.83 504.49 0.55 499.44 0.55L499.44 0.55Q495.29 0.55 492.56-2.58 489.84-5.7 489.84-10.45L489.84-10.45ZM505.54-12.2L505.54-12.2Q505.54-19.45 500.59-19.45L500.59-19.45Q495.44-19.45 495.44-12.65L495.44-12.65Q495.44-9.1 496.89-7.1 498.34-5.1 500.71-5.1 503.09-5.1 504.31-6.93 505.54-8.75 505.54-12.2ZM523.13-37.45L529.98-38.7 529.33-13 529.88-1.25 523.13 0 523.73-12.15 523.13-37.45ZM535.78-24.2L542.48-25.45 541.88-13 542.43-1.25 535.73 0 536.33-12.15 535.78-24.2ZM535.43-32.77Q535.43-34.45 536.73-35.77 538.03-37.1 539.73-37.1 541.43-37.1 542.33-36.18 543.23-35.25 543.23-33.4 543.23-31.55 541.96-30.23 540.68-28.9 539.01-28.9 537.33-28.9 536.38-30 535.43-31.1 535.43-32.77ZM562.88-38.25L561.33-32.55Q559.48-33 557.98-33 556.48-33 555.8-32.1 555.13-31.2 555.13-28.95L555.13-28.95 555.08-24.2 560.48-24.2 559.93-20.1 555.08-20.1 555.03-13 555.58-1.25 548.83 0 549.43-12.15 549.23-20.1 545.93-20.1 546.48-24.2 549.13-24.2 549.08-28Q549.08-32.45 551.83-35.58 554.58-38.7 558.53-38.7L558.53-38.7Q560.63-38.7 562.88-38.25L562.88-38.25ZM572.13-5.1L572.13-5.1Q573.58-5.1 575.18-5.85 576.78-6.6 577.68-7.35L577.68-7.35 578.58-8.1 580.88-5.3Q580.38-4.45 579.33-3.35 578.28-2.25 577.2-1.48 576.13-0.7 574.35-0.08 572.58 0.55 570.68 0.55L570.68 0.55Q566.63 0.55 564.08-2.53 561.53-5.6 561.53-10.45L561.53-10.45Q561.53-16.55 565.08-21.15 568.63-25.75 573.38-25.75L573.38-25.75Q577.03-25.75 579.05-23.7 581.08-21.65 581.08-17.95L581.08-17.95Q581.08-15.75 580.33-12.95L580.33-12.95 579.33-11.9 566.83-10.75Q567.68-5.1 572.13-5.1ZM572.13-20.6L572.13-20.6Q569.93-20.6 568.43-18.82 566.93-17.05 566.68-14.3L566.68-14.3 575.18-15.35Q575.33-16.5 575.33-17.25L575.33-17.25Q575.33-20.6 572.13-20.6Z" opacity="1" transform="matrix(1,0,0,1,0,0)" fill="#7f707f" class="slogan-text-1" data-fill-palette-color="secondary" id="text-1"></path></svg></g></svg></g></svg></g></svg></g></svg></g><defs></defs></svg><rect width="395.52" height="124.6156638100664" fill="none" stroke="none" visibility="hidden"></rect></g></svg></g></svg>