<svg xmlns="http://www.w3.org/2000/svg" version="1.1" xmlns:xlink="http://www.w3.org/1999/xlink" xmlns:svgjs="http://svgjs.dev/svgjs" width="1500" height="1687" viewBox="0 0 1500 1687"><g transform="matrix(1,0,0,1,2.2737367544323206e-13,0)"><svg viewBox="0 0 320 360" data-background-color="#fafafa" preserveAspectRatio="xMidYMid meet" height="1687" width="1500" xmlns="http://www.w3.org/2000/svg" xmlns:xlink="http://www.w3.org/1999/xlink"><g id="tight-bounds" transform="matrix(1,0,0,1,0,0)"><svg viewBox="0 0 320 360" height="360" width="320"><g><svg></svg></g><g><svg viewBox="0 0 320 360" height="360" width="320"><g><path d="M20.961 227.22l3.726 4.658-1.863-6.056c-0.466-2.795-3.726 0.466-1.863 1.398M25.153 224.425c1.397 2.329 2.795 4.658 2.795 6.987 0 3.261 2.795 4.658 5.123 5.589-3.261-3.726-5.124-13.974-7.918-12.576M204.017 26.929c7.918 0 15.371-0.932 23.756 0.931 20.495 5.124 37.729 15.371 49.374 29.811l32.606 52.169c1.397 13.042 4.192 27.482 3.726 43.319 3.261 0 2.795-4.658 6.521-5.59-3.726 9.316-5.59 20.961-6.521 34.469-2.329-7.453 0-18.632 0.466-24.687-3.261 5.124-5.124 1.397-5.124-0.932 0.466-3.726-1.397-3.261-2.795-4.658-5.124-4.658-8.384-9.782-12.11-17.7 2.329-6.055 2.795-14.905-4.658-19.563-2.329-1.397-5.124-3.726-6.521-7.453-1.863-5.124-5.124-11.179-4.193-19.097 0.466-2.329-6.987 5.124-11.179 1.863-18.166-12.576-36.332-27.016-58.224-39.127-11.645 0-20.029-4.192-24.221-9.316-3.726-4.658-0.932-10.713 4.658-11.179 3.261 0 6.987-0.932 9.782 0.932 0.466-1.863 2.329-4.192 4.657-4.192M157.904 16.215l0.932 0.466c4.658 0.932 6.987 7.453 12.11 5.124 0 3.261 0.466 6.521-0.466 8.85-1.397 3.726-5.59 3.726-8.85 3.726-31.208-1.863-49.374 11.179-68.471 22.358-5.124 3.261-10.713 5.59-14.906 9.782-20.029 18.632-41.921 35.866-47.045 70.335l-4.192 38.195c-0.466 4.192-5.124 8.384-4.192 13.508l3.26 22.824c-3.261-3.261-5.124 0.932-4.192 2.795 0.466 1.397 2.329 6.055 5.124 1.863 3.726 6.987 7.453 20.495 12.576 26.55 15.837 18.632 36.332 35.4 53.101 52.169 4.192-0.932 7.453-0.932 8.384-3.727 1.397 2.795-1.397 5.59-3.726 6.056 7.453 4.658 15.837 8.85 27.016 9.781 14.44 0.932 27.948 3.261 40.524 6.522 6.521-1.863 13.042-2.795 20.029-3.261 2.329 0 3.726-3.726 6.521-4.658l0.466-4.658c2.795 4.192 2.329-1.397 0.466-4.192 3.261 2.795 4.192 5.124 5.589 6.987 0-1.397 3.726-6.521 3.727-0.466l0.931-6.055c1.397-0.932 1.863 5.124 3.261 0.931 1.397-4.192 4.192-0.932 6.987-2.329-0.932 1.863-0.466 5.59 2.794 3.261l3.727-3.261c2.329 5.59 6.055 3.261 7.918 2.329 20.495-13.042 40.99-28.413 60.553-43.784l-0.466 6.055 2.329-7.453c2.329 2.329 4.192 0.466 5.124-0.931 2.795-4.658 6.521-9.316 12.577-13.508-7.453 20.029-16.303 35.866-27.482 48.908l-4.658 5.59c0 3.261-0.932 7.453-4.658 7.918-1.863 0.466-5.59-0.932-8.384 1.863-1.397 1.863 3.261 5.59-0.466 2.795-3.261-2.329-6.521 0-10.248 0.932-2.795 0.932 1.863 3.726 2.795 5.589 0.932 1.863 1.863 3.726 1.398 6.056l-5.124-5.59c-6.055 3.261-9.782 9.316-14.906 13.974-2.329 1.863-1.397 5.124-1.397 7.918-3.261 0-6.987-0.932-8.85 0.932-1.397 1.863-0.932 4.658-0.932 7.453-4.658-0.466-5.124-7.453-9.315-6.056-4.192 0.932-8.85 1.397-12.577 3.727 2.795 5.59-4.658 2.329-3.726 3.26-6.987-4.192-13.042-7.453-20.495-4.658-15.837-5.124-35.4-2.795-49.84-0.931 0-2.329 0.466-4.658-0.466-5.124-0.932 2.329-3.726 1.397-3.26 1.397-8.85-6.055-17.7-9.782-27.016-14.905-8.384 0.932-16.303-3.261-18.632-5.59-6.521-6.055-13.974-2.795-20.029-4.192-13.042-3.261-17.7-16.769-19.098-26.084-0.932-4.658-4.658-6.521-6.055-6.056-6.055-19.563-15.371-37.263-22.824-55.429-1.863-4.658-1.397-9.316-1.397-14.44 2.329 0.932 4.658 0.466 4.192-2.794-2.329-15.371-7.918-27.016-13.974-38.195 3.261-15.837 3.726-34.469 11.179-48.443 6.521-12.576 18.632-19.098 27.016-29.811 2.795-3.726 2.795-8.85 5.59-12.11 9.316-9.316 18.632-19.098 28.879-27.482 4.658-3.726 10.247 0 17.234-1.397 2.329-8.384 11.645-15.837 20.495-13.508 3.726 0.932 11.179-8.85 13.508-9.782 3.726-1.397 1.863 3.726 1.863 6.987 8.85-6.987 20.961-10.713 32.14-14.906" fill="#a3847f" fill-rule="nonzero" stroke="none" stroke-width="1" stroke-linecap="butt" stroke-linejoin="miter" stroke-miterlimit="10" stroke-dasharray="" stroke-dashoffset="0" font-family="none" font-weight="none" font-size="none" text-anchor="none" style="mix-blend-mode: normal" data-fill-palette-color="tertiary"></path></g><g transform="matrix(1,0,0,1,64,156.2185223255324)"><svg viewBox="0 0 192 47.56295534893519" height="47.56295534893519" width="192"><g><svg viewBox="0 0 192 47.56295534893519" height="47.56295534893519" width="192"><g><svg viewBox="0 0 192 47.56295534893519" height="47.56295534893519" width="192"><g><svg viewBox="0 0 192 47.56295534893519" height="47.56295534893519" width="192"><g id="textblocktransform"><svg viewBox="0 0 192 47.56295534893519" height="47.56295534893519" width="192" id="textblock"><g><svg viewBox="0 0 192 30.625985347305942" height="30.625985347305942" width="192"><g transform="matrix(1,0,0,1,0,0)"><svg width="192" viewBox="1.76 -41.19 263.23 41.99999999999999" height="30.625985347305942" data-palette-color="#a3847f"><path d="M33.23-14.16L33.23-14.16Q33.23-11.96 32.64-10.03 32.06-8.11 31.02-6.47 29.98-4.83 28.52-3.53 27.05-2.22 25.31-1.32 23.56-0.42 21.57 0.07 19.58 0.56 17.48 0.56L17.48 0.56Q15.38 0.56 13.4 0.07 11.43-0.42 9.68-1.32 7.93-2.22 6.47-3.53 5-4.83 3.97-6.47 2.93-8.11 2.34-10.05 1.76-11.99 1.76-14.16L1.76-14.16Q1.76-16.33 2.34-18.27 2.93-20.21 3.97-21.85 5-23.49 6.47-24.79 7.93-26.1 9.68-27 11.43-27.91 13.4-28.39 15.38-28.88 17.48-28.88L17.48-28.88Q19.58-28.88 21.57-28.39 23.56-27.91 25.31-27 27.05-26.1 28.52-24.79 29.98-23.49 31.02-21.85 32.06-20.21 32.64-18.27 33.23-16.33 33.23-14.16ZM24.83-14.16L24.83-14.16Q24.83-15.33 24.69-16.64 24.56-17.94 24.24-19.2 23.93-20.46 23.38-21.62 22.83-22.78 22.02-23.65 21.22-24.51 20.09-25.04 18.97-25.56 17.48-25.56L17.48-25.56Q16.06-25.56 14.97-25.02 13.87-24.49 13.05-23.6 12.23-22.71 11.68-21.53 11.13-20.36 10.79-19.1 10.45-17.85 10.3-16.56 10.16-15.28 10.16-14.16L10.16-14.16Q10.16-13.04 10.3-11.76 10.45-10.47 10.79-9.2 11.13-7.93 11.68-6.77 12.23-5.62 13.05-4.72 13.87-3.83 14.97-3.3 16.06-2.76 17.48-2.76L17.48-2.76Q18.95-2.76 20.07-3.28 21.19-3.81 22.01-4.69 22.83-5.57 23.36-6.71 23.9-7.86 24.23-9.13 24.56-10.4 24.69-11.69 24.83-12.99 24.83-14.16ZM62.4-25.71L62.4-25.71 57.76-18.02Q57.47-18.99 57-20.21 56.54-21.44 55.86-22.5 55.17-23.56 54.22-24.28 53.27-25 52.02-25L52.02-25Q50.88-25 50.03-24.41 49.19-23.83 48.61-22.89 48.02-21.95 47.64-20.76 47.26-19.58 47.06-18.37 46.85-17.16 46.77-16.05 46.7-14.94 46.7-14.14L46.7-14.14 46.7 0 38.43 0 38.43-28.2 41.6-28.2 44.94-21.63Q45.63-23.22 46.51-24.55 47.39-25.88 48.53-26.84 49.68-27.81 51.13-28.34 52.59-28.88 54.42-28.88L54.42-28.88Q55.37-28.88 56.54-28.72 57.71-28.56 58.84-28.19 59.96-27.81 60.91-27.2 61.86-26.59 62.4-25.71ZM71.89-13.38L71.89-13.38Q73.41-13.04 74.92-12.84 76.44-12.65 77.97-12.65L77.97-12.65Q79.58-12.65 80.96-12.95 82.34-13.26 83.36-13.98 84.37-14.7 84.96-15.89 85.54-17.09 85.54-18.87L85.54-18.87Q85.54-20.31 85.15-21.51 84.76-22.71 83.99-23.56 83.22-24.41 82.1-24.89 80.98-25.37 79.49-25.37L79.49-25.37Q78.1-25.37 76.98-24.85 75.87-24.34 75.03-23.47 74.19-22.61 73.59-21.46 72.99-20.31 72.6-19.07 72.21-17.82 72.04-16.55 71.87-15.28 71.87-14.16L71.87-14.16Q71.87-13.96 71.87-13.77 71.87-13.57 71.89-13.38ZM92.23-18.95L92.23-18.95Q92.23-17.21 91.67-15.86 91.11-14.5 90.14-13.48 89.18-12.45 87.91-11.74 86.64-11.04 85.2-10.58 83.76-10.13 82.23-9.94 80.71-9.74 79.27-9.74L79.27-9.74Q77.44-9.74 75.65-10 73.87-10.25 72.14-10.82L72.14-10.82Q72.41-9.2 72.99-7.75 73.58-6.3 74.56-5.21 75.53-4.13 76.96-3.49 78.39-2.86 80.34-2.86L80.34-2.86Q81.64-2.86 82.81-3.25 83.98-3.64 84.96-4.35 85.93-5.05 86.68-6.03 87.42-7.01 87.89-8.2L87.89-8.2 91.45-6.88Q90.64-4.96 89.24-3.55 87.84-2.15 86.07-1.23 84.3-0.32 82.31 0.12 80.32 0.56 78.36 0.56L78.36 0.56Q75.14 0.56 72.41-0.52 69.67-1.61 67.7-3.56 65.72-5.52 64.59-8.23 63.47-10.94 63.47-14.16L63.47-14.16Q63.47-17.38 64.59-20.09 65.72-22.8 67.7-24.76 69.67-26.71 72.41-27.8 75.14-28.88 78.36-28.88L78.36-28.88Q79.93-28.88 81.56-28.66 83.2-28.44 84.74-27.97 86.27-27.49 87.64-26.73 89.01-25.98 90.02-24.87 91.04-23.75 91.63-22.29 92.23-20.83 92.23-18.95ZM105.39-3.66L105.39-3.66Q105.39-2.73 105.05-1.92 104.7-1.1 104.09-0.5 103.48 0.1 102.68 0.45 101.87 0.81 100.94 0.81L100.94 0.81Q100.02 0.81 99.21 0.45 98.41 0.1 97.8-0.5 97.18-1.1 96.84-1.92 96.5-2.73 96.5-3.66L96.5-3.66Q96.5-4.57 96.84-5.38 97.18-6.2 97.8-6.8 98.41-7.4 99.21-7.75 100.02-8.11 100.94-8.11L100.94-8.11Q101.87-8.11 102.68-7.75 103.48-7.4 104.09-6.8 104.7-6.2 105.05-5.38 105.39-4.57 105.39-3.66ZM140.66-14.16L140.66-14.16Q140.66-11.96 140.08-10.03 139.49-8.11 138.45-6.47 137.42-4.83 135.95-3.53 134.49-2.22 132.74-1.32 131-0.42 129.01 0.07 127.02 0.56 124.92 0.56L124.92 0.56Q122.82 0.56 120.84 0.07 118.86-0.42 117.12-1.32 115.37-2.22 113.91-3.53 112.44-4.83 111.4-6.47 110.37-8.11 109.78-10.05 109.19-11.99 109.19-14.16L109.19-14.16Q109.19-16.33 109.78-18.27 110.37-20.21 111.4-21.85 112.44-23.49 113.91-24.79 115.37-26.1 117.12-27 118.86-27.91 120.84-28.39 122.82-28.88 124.92-28.88L124.92-28.88Q127.02-28.88 129.01-28.39 131-27.91 132.74-27 134.49-26.1 135.95-24.79 137.42-23.49 138.45-21.85 139.49-20.21 140.08-18.27 140.66-16.33 140.66-14.16ZM132.27-14.16L132.27-14.16Q132.27-15.33 132.13-16.64 132-17.94 131.68-19.2 131.36-20.46 130.81-21.62 130.26-22.78 129.46-23.65 128.65-24.51 127.53-25.04 126.41-25.56 124.92-25.56L124.92-25.56Q123.5-25.56 122.4-25.02 121.3-24.49 120.49-23.6 119.67-22.71 119.12-21.53 118.57-20.36 118.23-19.1 117.89-17.85 117.74-16.56 117.59-15.28 117.59-14.16L117.59-14.16Q117.59-13.04 117.74-11.76 117.89-10.47 118.23-9.2 118.57-7.93 119.12-6.77 119.67-5.62 120.49-4.72 121.3-3.83 122.4-3.3 123.5-2.76 124.92-2.76L124.92-2.76Q126.38-2.76 127.5-3.28 128.63-3.81 129.45-4.69 130.26-5.57 130.8-6.71 131.34-7.86 131.67-9.13 132-10.4 132.13-11.69 132.27-12.99 132.27-14.16ZM154.11-32.62L154.11 0 145.86 0 145.86-41.19 149.04-41.19 154.11-32.62ZM159.56-12.06L159.56-12.06Q159.56-13.99 159.88-16.06 160.21-18.14 160.84-20.21 161.46-22.29 162.34-24.32 163.22-26.34 164.32-28.2L164.32-28.2 170.35-28.2Q169.74-26.37 169.26-24.38 168.78-22.39 168.45-20.4 168.12-18.41 167.94-16.5 167.76-14.6 167.76-12.96L167.76-12.96Q167.76-12.01 167.84-10.93 167.93-9.84 168.15-8.75 168.37-7.67 168.77-6.67 169.17-5.66 169.81-4.9 170.44-4.13 171.36-3.67 172.28-3.22 173.52-3.22L173.52-3.22Q174.74-3.22 175.71-3.77 176.67-4.32 177.4-5.21 178.13-6.1 178.65-7.25 179.16-8.4 179.49-9.61 179.82-10.82 179.98-11.98 180.14-13.13 180.14-14.06L180.14-14.06 180.14-28.2 188.39-28.2 188.39 0 185.21 0 181.43-6.57Q180.72-4.93 179.71-3.6 178.7-2.27 177.4-1.32 176.11-0.37 174.53 0.15 172.96 0.66 171.13 0.66L171.13 0.66Q168.2 0.66 166.03-0.29 163.85-1.25 162.41-2.93 160.97-4.61 160.26-6.95 159.56-9.28 159.56-12.06ZM212.58-17.14L207.92 0 200.5 0 192.78-28.2 201.03-28.2 205.87-8.42 209.89-28.2 217.32-28.2 222.25-7.89 227.01-28.2 232.72-28.2 224.18 0 216.75 0 212.58-17.14ZM264.99-28.2L264.99 0 256.74 0 256.74-3.37Q255.28-1.37 253.21-0.4 251.15 0.56 248.69 0.56L248.69 0.56Q245.46 0.56 242.92-0.59 240.39-1.73 238.63-3.72 236.87-5.71 235.94-8.4 235.01-11.08 235.01-14.16L235.01-14.16Q235.01-17.24 235.94-19.92 236.87-22.61 238.63-24.6 240.39-26.59 242.92-27.73 245.46-28.88 248.69-28.88L248.69-28.88Q250.32-28.88 251.8-28.39 253.28-27.91 254.51-27.01 255.74-26.12 256.68-24.87 257.62-23.61 258.16-22.07L258.16-22.07 261.82-28.2 264.99-28.2ZM256.69-14.16L256.69-14.16Q256.69-15.26 256.58-16.48 256.47-17.7 256.21-18.9 255.94-20.09 255.46-21.18 254.98-22.27 254.24-23.11 253.5-23.95 252.45-24.44 251.4-24.93 250-24.93L250-24.93Q248.61-24.93 247.59-24.43 246.56-23.93 245.83-23.08 245.1-22.24 244.62-21.14 244.15-20.04 243.88-18.85 243.61-17.65 243.5-16.44 243.39-15.23 243.39-14.16L243.39-14.16Q243.39-13.09 243.5-11.87 243.61-10.64 243.88-9.45 244.15-8.25 244.62-7.15 245.1-6.05 245.83-5.21 246.56-4.37 247.59-3.87 248.61-3.37 250-3.37L250-3.37Q251.27-3.37 252.26-3.89 253.25-4.42 254-5.3 254.74-6.18 255.25-7.3 255.77-8.42 256.08-9.62 256.4-10.82 256.55-12 256.69-13.18 256.69-14.16Z" opacity="1" transform="matrix(1,0,0,1,0,0)" fill="#a3847f" class="wordmark-text-0" data-fill-palette-color="primary" id="text-0"></path></svg></g></svg></g><g transform="matrix(1,0,0,1,0,37.85604546415654)"><svg viewBox="0 0 112.72319999999999 9.706909884778652" height="9.706909884778652" width="112.72319999999999"><g transform="matrix(1,0,0,1,0,0)"><svg width="112.72319999999999" viewBox="4 -38.7 577.08 49.7" height="9.706909884778652" data-palette-color="#3c323c"><path d="M4-34.5L14.85-34.5Q19.65-34.5 22.45-32.33 25.25-30.15 25.25-26.5L25.25-26.5Q25.25-20.65 20.45-18.35L20.45-18.35Q26.95-16.1 26.95-10.05L26.95-10.05Q26.95-5.5 23.05-2.48 19.15 0.55 13.25 0.55L13.25 0.55Q10.15 0.55 4 0L4 0 4.6-12.15 4-34.5ZM14.2-14.85L14.2-14.85 10.15-14.85 10.1-13 10.45-4.85Q13.35-4.6 14.9-4.6L14.9-4.6Q17.55-4.6 19.03-5.93 20.5-7.25 20.5-9.8 20.5-12.35 19-13.6 17.5-14.85 14.2-14.85ZM13.05-29.45L13.05-29.45 10.6-29.45 10.3-19.7 13.55-19.7Q16.1-19.7 17.45-21.08 18.8-22.45 18.8-25L18.8-25Q18.8-29.45 13.05-29.45ZM31.35-24.15L31.35-24.15 37.4-25.45Q37.85-21.6 38-18.15L38-18.15Q42.55-25.2 46.55-25.2L46.55-25.2 46-17.4Q43.1-17.4 41.42-16.88 39.75-16.35 38-14.8L38-14.8 38-13 38.55-1.25 31.85 0 32.45-12.15Q32.25-18.85 31.35-24.15ZM49.7-24.2L56.4-25.45 55.8-13 56.34-1.25 49.65 0 50.25-12.15 49.7-24.2ZM49.34-32.77Q49.34-34.45 50.65-35.77 51.95-37.1 53.65-37.1 55.34-37.1 56.25-36.18 57.15-35.25 57.15-33.4 57.15-31.55 55.87-30.23 54.59-28.9 52.92-28.9 51.25-28.9 50.3-30 49.34-31.1 49.34-32.77ZM76.39-12.65Q76.39-16.1 75.79-17.25 75.19-18.4 72.99-18.4 70.79-18.4 67.99-16.65L67.99-16.65 67.99-13 68.54-1.25 61.84 0 62.44-12.15Q62.24-18.85 61.34-24.15L61.34-24.15 67.39-25.45Q67.74-22.55 67.89-19.8L67.89-19.8Q68.64-20.8 69.59-21.78 70.54-22.75 72.59-23.98 74.64-25.2 76.92-25.2 79.19-25.2 80.74-23.43 82.29-21.65 82.29-18.6L82.29-18.6 81.99-13 82.54-1 75.79 0.25 76.39-12.65ZM86.29 4.95L86.29 4.95Q86.29 0.55 94.49-1.95L94.49-1.95Q92.54-2.95 92.54-4.55L92.54-4.55Q92.54-5.2 93.04-5.85 93.54-6.5 94.49-7.2L94.49-7.2 94.49-7.6Q90.89-7.6 88.77-9.6 86.64-11.6 86.64-14.95L86.64-14.95Q86.64-19.3 90.19-22.53 93.74-25.75 98.59-25.75L98.59-25.75Q99.84-25.75 102.24-25.25 104.64-24.75 106.94-24.75L106.94-24.75 110.79-24.75 110.29-20.4 106.54-20.85Q107.04-19.4 107.04-17.55 107.04-15.7 106.17-13.88 105.29-12.05 104.07-10.95 102.84-9.85 101.62-9.03 100.39-8.2 99.52-7.58 98.64-6.95 98.64-6.45L98.64-6.45Q98.64-5.5 100.64-4.8L100.64-4.8Q105.94-2.65 107.82-1.15 109.69 0.35 109.69 2.55L109.69 2.55Q109.69 6.25 105.97 8.63 102.24 11 97.09 11 91.94 11 89.12 9.35 86.29 7.7 86.29 4.95ZM101.39-16.05L101.39-16.05Q101.39-18.5 100.29-19.65 99.19-20.8 96.84-20.8L96.84-20.8Q92.29-20.8 92.29-16.32 92.29-11.85 97.14-11.85L97.14-11.85Q101.39-11.85 101.39-16.05ZM103.19 3.3L103.19 3.3Q103.19 2.4 102.24 1.63 101.29 0.85 98.84-0.2L98.84-0.2Q95.19 0.8 93.82 1.65 92.44 2.5 92.44 3.75 92.44 5 93.82 5.78 95.19 6.55 97.64 6.55 100.09 6.55 101.64 5.65 103.19 4.75 103.19 3.3ZM113.44-24.2L120.14-25.45 119.54-13 120.09-1.25 113.39 0 113.99-12.15 113.44-24.2ZM113.09-32.77Q113.09-34.45 114.39-35.77 115.69-37.1 117.39-37.1 119.09-37.1 119.99-36.18 120.89-35.25 120.89-33.4 120.89-31.55 119.61-30.23 118.34-28.9 116.66-28.9 114.99-28.9 114.04-30 113.09-31.1 113.09-32.77ZM140.14-12.65Q140.14-16.1 139.54-17.25 138.94-18.4 136.74-18.4 134.54-18.4 131.74-16.65L131.74-16.65 131.74-13 132.29-1.25 125.59 0 126.19-12.15Q125.99-18.85 125.09-24.15L125.09-24.15 131.14-25.45Q131.49-22.55 131.64-19.8L131.64-19.8Q132.39-20.8 133.34-21.78 134.29-22.75 136.34-23.98 138.39-25.2 140.66-25.2 142.94-25.2 144.49-23.43 146.04-21.65 146.04-18.6L146.04-18.6 145.74-13 146.29-1 139.54 0.25 140.14-12.65ZM150.03 4.95L150.03 4.95Q150.03 0.55 158.23-1.95L158.23-1.95Q156.28-2.95 156.28-4.55L156.28-4.55Q156.28-5.2 156.78-5.85 157.28-6.5 158.23-7.2L158.23-7.2 158.23-7.6Q154.63-7.6 152.51-9.6 150.38-11.6 150.38-14.95L150.38-14.95Q150.38-19.3 153.93-22.53 157.48-25.75 162.33-25.75L162.33-25.75Q163.58-25.75 165.98-25.25 168.38-24.75 170.68-24.75L170.68-24.75 174.53-24.75 174.03-20.4 170.28-20.85Q170.78-19.4 170.78-17.55 170.78-15.7 169.91-13.88 169.03-12.05 167.81-10.95 166.58-9.85 165.36-9.03 164.13-8.2 163.26-7.58 162.38-6.95 162.38-6.45L162.38-6.45Q162.38-5.5 164.38-4.8L164.38-4.8Q169.68-2.65 171.56-1.15 173.43 0.35 173.43 2.55L173.43 2.55Q173.43 6.25 169.71 8.63 165.98 11 160.83 11 155.68 11 152.86 9.35 150.03 7.7 150.03 4.95ZM165.13-16.05L165.13-16.05Q165.13-18.5 164.03-19.65 162.93-20.8 160.58-20.8L160.58-20.8Q156.03-20.8 156.03-16.32 156.03-11.85 160.88-11.85L160.88-11.85Q165.13-11.85 165.13-16.05ZM166.93 3.3L166.93 3.3Q166.93 2.4 165.98 1.63 165.03 0.85 162.58-0.2L162.58-0.2Q158.93 0.8 157.56 1.65 156.18 2.5 156.18 3.75 156.18 5 157.56 5.78 158.93 6.55 161.38 6.55 163.83 6.55 165.38 5.65 166.93 4.75 166.93 3.3ZM192.03 11L185.58 9.65 190.73-1.9 187.03-12 181.98-24.15 188.63-25.4 191.83-14.75 193.48-9.7 194.13-9.7 195.33-13.35 198.93-25.45 205.08-24.7 196.23-1.45 192.03 11ZM206.63-10.45Q206.63-16.85 210.08-21.3 213.53-25.75 218.15-25.75 222.78-25.75 225.35-22.75 227.93-19.75 227.93-14.8L227.93-14.8Q227.93-8.2 224.6-3.83 221.28 0.55 216.23 0.55L216.23 0.55Q212.08 0.55 209.35-2.58 206.63-5.7 206.63-10.45L206.63-10.45ZM222.33-12.2L222.33-12.2Q222.33-19.45 217.38-19.45L217.38-19.45Q212.23-19.45 212.23-12.65L212.23-12.65Q212.23-9.1 213.68-7.1 215.13-5.1 217.5-5.1 219.88-5.1 221.1-6.93 222.33-8.75 222.33-12.2ZM238.22 0L238.22 0Q235.52 0 233.85-1.78 232.17-3.55 232.17-6.45L232.17-6.45 232.47-12.2 231.92-24.2 238.62-25.45 237.97-10.25Q237.97-8.1 238.75-7.1 239.52-6.1 241.22-6.1 242.92-6.1 245.92-7.8L245.92-7.8 245.92-10.8 245.37-23.95 252.12-25.2 251.52-12.7 251.57-8.6Q251.57-5.4 253.22-2.15L253.22-2.15 248.02 0.15Q246.37-3.1 246.02-5.05L246.02-5.05Q241.52 0 238.22 0ZM257.17-24.15L257.17-24.15 263.22-25.45Q263.67-21.6 263.82-18.15L263.82-18.15Q268.37-25.2 272.37-25.2L272.37-25.2 271.82-17.4Q268.92-17.4 267.25-16.88 265.57-16.35 263.82-14.8L263.82-14.8 263.82-13 264.37-1.25 257.67 0 258.27-12.15Q258.07-18.85 257.17-24.15ZM282.26-24.2L285.17-24.2 285.17-29.65 291.92-30.95 291.26-24.2 297.31-24.2 296.76-20.1 291.06-20.1 290.81-9.65Q290.81-7.3 291.26-6.53 291.71-5.75 292.92-5.75 294.12-5.75 296.12-6.3L296.12-6.3 296.42-2.75Q293.12 0 290.62 0 288.12 0 286.51-1.83 284.92-3.65 284.92-6.6L284.92-6.6 285.21-12.2 285.17-20.1 281.71-20.1 282.26-24.2ZM315.56-12.65Q315.56-16.1 314.96-17.25 314.36-18.4 312.16-18.4 309.96-18.4 307.16-16.65L307.16-16.65 307.16-13 307.71-1.25 300.96 0 301.56-12.15 300.96-37.45 307.81-38.7 307.16-25.75 307.16-19.9Q307.91-20.9 308.86-21.85 309.81-22.8 311.81-24 313.81-25.2 316.09-25.2 318.36-25.2 319.91-23.43 321.46-21.65 321.46-18.6L321.46-18.6 321.16-13 321.71-1 314.96 0.25 315.56-12.65ZM325.71-10.45Q325.71-16.85 329.16-21.3 332.61-25.75 337.24-25.75 341.86-25.75 344.44-22.75 347.01-19.75 347.01-14.8L347.01-14.8Q347.01-8.2 343.69-3.83 340.36 0.55 335.31 0.55L335.31 0.55Q331.16 0.55 328.44-2.58 325.71-5.7 325.71-10.45L325.71-10.45ZM341.41-12.2L341.41-12.2Q341.41-19.45 336.46-19.45L336.46-19.45Q331.31-19.45 331.31-12.65L331.31-12.65Q331.31-9.1 332.76-7.1 334.21-5.1 336.58-5.1 338.96-5.1 340.19-6.93 341.41-8.75 341.41-12.2ZM357.31 0L357.31 0Q354.61 0 352.93-1.78 351.26-3.55 351.26-6.45L351.26-6.45 351.56-12.2 351.01-24.2 357.71-25.45 357.06-10.25Q357.06-8.1 357.83-7.1 358.61-6.1 360.31-6.1 362.01-6.1 365.01-7.8L365.01-7.8 365.01-10.8 364.46-23.95 371.21-25.2 370.61-12.7 370.66-8.6Q370.66-5.4 372.31-2.15L372.31-2.15 367.11 0.15Q365.46-3.1 365.11-5.05L365.11-5.05Q360.61 0 357.31 0ZM375.06 4.95L375.06 4.95Q375.06 0.55 383.26-1.95L383.26-1.95Q381.31-2.95 381.31-4.55L381.31-4.55Q381.31-5.2 381.81-5.85 382.31-6.5 383.26-7.2L383.26-7.2 383.26-7.6Q379.66-7.6 377.53-9.6 375.41-11.6 375.41-14.95L375.41-14.95Q375.41-19.3 378.96-22.53 382.51-25.75 387.36-25.75L387.36-25.75Q388.61-25.75 391.01-25.25 393.41-24.75 395.71-24.75L395.71-24.75 399.56-24.75 399.06-20.4 395.31-20.85Q395.81-19.4 395.81-17.55 395.81-15.7 394.93-13.88 394.06-12.05 392.83-10.95 391.61-9.85 390.38-9.03 389.16-8.2 388.28-7.58 387.41-6.95 387.41-6.45L387.41-6.45Q387.41-5.5 389.41-4.8L389.41-4.8Q394.71-2.65 396.58-1.15 398.46 0.35 398.46 2.55L398.46 2.55Q398.46 6.25 394.73 8.63 391.01 11 385.86 11 380.71 11 377.88 9.35 375.06 7.7 375.06 4.95ZM390.16-16.05L390.16-16.05Q390.16-18.5 389.06-19.65 387.96-20.8 385.61-20.8L385.61-20.8Q381.06-20.8 381.06-16.32 381.06-11.85 385.91-11.85L385.91-11.85Q390.16-11.85 390.16-16.05ZM391.96 3.3L391.96 3.3Q391.96 2.4 391.01 1.63 390.06 0.85 387.61-0.2L387.61-0.2Q383.96 0.8 382.58 1.65 381.21 2.5 381.21 3.75 381.21 5 382.58 5.78 383.96 6.55 386.41 6.55 388.86 6.55 390.41 5.65 391.96 4.75 391.96 3.3ZM416.8-12.65Q416.8-16.1 416.2-17.25 415.6-18.4 413.4-18.4 411.2-18.4 408.4-16.65L408.4-16.65 408.4-13 408.95-1.25 402.2 0 402.8-12.15 402.2-37.45 409.05-38.7 408.4-25.75 408.4-19.9Q409.15-20.9 410.1-21.85 411.05-22.8 413.05-24 415.05-25.2 417.33-25.2 419.6-25.2 421.15-23.43 422.7-21.65 422.7-18.6L422.7-18.6 422.4-13 422.95-1 416.2 0.25 416.8-12.65ZM427.5-24.2L430.4-24.2 430.4-29.65 437.15-30.95 436.5-24.2 442.55-24.2 442-20.1 436.3-20.1 436.05-9.65Q436.05-7.3 436.5-6.53 436.95-5.75 438.15-5.75 439.35-5.75 441.35-6.3L441.35-6.3 441.65-2.75Q438.35 0 435.85 0 433.35 0 431.75-1.83 430.15-3.65 430.15-6.6L430.15-6.6 430.45-12.2 430.4-20.1 426.95-20.1 427.5-24.2ZM453.75-4.65L453.75-4.65Q456.35-4.65 456.35-6.95L456.35-6.95Q456.35-7.75 455.22-8.45 454.1-9.15 452.47-9.85 450.85-10.55 449.22-11.43 447.6-12.3 446.47-13.85 445.35-15.4 445.35-17.4L445.35-17.4Q445.35-20.75 448.3-23.25 451.25-25.75 455.1-25.75L455.1-25.75Q456.9-25.75 458.62-25.33 460.35-24.9 461.95-24L461.95-24 458.6-17.9Q458.25-18.2 457.7-18.65 457.15-19.1 455.62-19.83 454.1-20.55 452.92-20.55 451.75-20.55 451.12-20.03 450.5-19.5 450.5-18.57 450.5-17.65 452.22-16.73 453.95-15.8 456-15.03 458.05-14.25 459.77-12.48 461.5-10.7 461.5-8.25L461.5-8.25Q461.5-4.75 458.62-2.1 455.75 0.55 452 0.55L452 0.55Q449.6 0.55 447.52-0.5 445.45-1.55 444.55-2.6L444.55-2.6 443.65-3.65 447.6-8.25Q447.9-7.85 448.45-7.25 449-6.65 450.62-5.65 452.25-4.65 453.75-4.65ZM472.64-24.2L475.54-24.2 475.54-29.65 482.29-30.95 481.64-24.2 487.69-24.2 487.14-20.1 481.44-20.1 481.19-9.65Q481.19-7.3 481.64-6.53 482.09-5.75 483.29-5.75 484.49-5.75 486.49-6.3L486.49-6.3 486.79-2.75Q483.49 0 480.99 0 478.49 0 476.89-1.83 475.29-3.65 475.29-6.6L475.29-6.6 475.59-12.2 475.54-20.1 472.09-20.1 472.64-24.2ZM489.84-10.45Q489.84-16.85 493.29-21.3 496.74-25.75 501.37-25.75 505.99-25.75 508.56-22.75 511.14-19.75 511.14-14.8L511.14-14.8Q511.14-8.2 507.81-3.83 504.49 0.55 499.44 0.55L499.44 0.55Q495.29 0.55 492.56-2.58 489.84-5.7 489.84-10.45L489.84-10.45ZM505.54-12.2L505.54-12.2Q505.54-19.45 500.59-19.45L500.59-19.45Q495.44-19.45 495.44-12.65L495.44-12.65Q495.44-9.1 496.89-7.1 498.34-5.1 500.71-5.1 503.09-5.1 504.31-6.93 505.54-8.75 505.54-12.2ZM523.13-37.45L529.98-38.7 529.33-13 529.88-1.25 523.13 0 523.73-12.15 523.13-37.45ZM535.78-24.2L542.48-25.45 541.88-13 542.43-1.25 535.73 0 536.33-12.15 535.78-24.2ZM535.43-32.77Q535.43-34.45 536.73-35.77 538.03-37.1 539.73-37.1 541.43-37.1 542.33-36.18 543.23-35.25 543.23-33.4 543.23-31.55 541.96-30.23 540.68-28.9 539.01-28.9 537.33-28.9 536.38-30 535.43-31.1 535.43-32.77ZM562.88-38.25L561.33-32.55Q559.48-33 557.98-33 556.48-33 555.8-32.1 555.13-31.2 555.13-28.95L555.13-28.95 555.08-24.2 560.48-24.2 559.93-20.1 555.08-20.1 555.03-13 555.58-1.25 548.83 0 549.43-12.15 549.23-20.1 545.93-20.1 546.48-24.2 549.13-24.2 549.08-28Q549.08-32.45 551.83-35.58 554.58-38.7 558.53-38.7L558.53-38.7Q560.63-38.7 562.88-38.25L562.88-38.25ZM572.13-5.1L572.13-5.1Q573.58-5.1 575.18-5.85 576.78-6.6 577.68-7.35L577.68-7.35 578.58-8.1 580.88-5.3Q580.38-4.45 579.33-3.35 578.28-2.25 577.2-1.48 576.13-0.7 574.35-0.08 572.58 0.55 570.68 0.55L570.68 0.55Q566.63 0.55 564.08-2.53 561.53-5.6 561.53-10.45L561.53-10.45Q561.53-16.55 565.08-21.15 568.63-25.75 573.38-25.75L573.38-25.75Q577.03-25.75 579.05-23.7 581.08-21.65 581.08-17.95L581.08-17.95Q581.08-15.75 580.33-12.95L580.33-12.95 579.33-11.9 566.83-10.75Q567.68-5.1 572.13-5.1ZM572.13-20.6L572.13-20.6Q569.93-20.6 568.43-18.82 566.93-17.05 566.68-14.3L566.68-14.3 575.18-15.35Q575.33-16.5 575.33-17.25L575.33-17.25Q575.33-20.6 572.13-20.6Z" opacity="1" transform="matrix(1,0,0,1,0,0)" fill="#3c323c" class="slogan-text-1" data-fill-palette-color="secondary" id="text-1"></path></svg></g></svg></g></svg></g></svg></g></svg></g></svg></g></svg></g></svg></g><defs></defs></svg><rect width="320" height="360" fill="none" stroke="none" visibility="hidden"></rect></g></svg></g></svg>