<?xml version="1.0" encoding="UTF-8"?>
<svg version="1.1" xmlns="http://www.w3.org/2000/svg" width="2000" height="725">
<path d="M0 0 C1.48599701 -0.00151062 1.48599701 -0.00151062 3.00201416 -0.00305176 C82.0624542 0.05103059 154.97943782 24.15230797 212.625 79.25 C213.74648437 80.30960938 213.74648437 80.30960938 214.890625 81.390625 C220.28985286 86.61979844 224.95477819 92.37065928 229.625 98.25 C230.51256888 99.34672008 231.40060441 100.44306265 232.2890625 101.5390625 C279.37830633 160.02517151 297.19968213 235.74638694 296.9375 309.625 C296.93476578 311.24310074 296.93476578 311.24310074 296.93197632 312.89389038 C296.85273075 340.9568897 294.40341759 368.11359751 289.03637695 395.67333984 C288.51989439 398.47344702 288.51989439 398.47344702 288.625 402.25 C292.02504727 395.95075668 295.35941769 389.62002963 298.625 383.25 C299.11830811 382.29335449 299.11830811 382.29335449 299.62158203 381.31738281 C302.6882318 375.24742199 304.47790733 370.84020629 302.3359375 364.1875 C302.10132813 363.548125 301.86671875 362.90875 301.625 362.25 C297.90371844 350.75252318 300.63478573 337.48602945 305.72265625 326.984375 C309.19121713 320.82327025 314.48525416 315.02274531 321.3125 312.6875 C324.92698046 312.21011579 326.60058423 312.20407168 329.625 314.25 C330.99618842 318.39511312 330.33701967 321.17824932 329.03515625 325.2734375 C328.48311523 327.03506226 328.48311523 327.03506226 327.91992188 328.83227539 C327.51322266 330.08387451 327.10652344 331.33547363 326.6875 332.625 C326.26965377 333.93269257 325.85234183 335.24055597 325.43554688 336.54858398 C324.18462474 340.45548347 322.9064832 344.35301817 321.625 348.25 C321.27163574 349.33458496 320.91827148 350.41916992 320.55419922 351.53662109 C312.29826406 376.72552379 302.26218875 400.48264417 284.63208008 420.5144043 C282.47460718 423.45498133 281.52545865 425.87278869 280.46875 429.3515625 C280.09234375 430.55071289 279.7159375 431.74986328 279.328125 432.98535156 C279.03518555 433.93577332 279.03518555 433.93577332 278.73632812 434.90539551 C266.91392641 472.99534191 247.91062191 508.45798798 220.80859375 537.87890625 C219.30208266 539.51477786 217.81619007 541.16979585 216.34765625 542.83984375 C211.73084026 548.08801919 206.98180923 552.77211457 201.625 557.25 C200.70332031 558.05953125 199.78164062 558.8690625 198.83203125 559.703125 C137.09302617 613.69283402 52.96975826 629.2202101 -26.91748047 624.48876953 C-105.1599494 619.08549777 -177.27790267 590.66782824 -230.0625 531.28515625 C-232.25852427 528.66526701 -234.32912908 525.9888272 -236.375 523.25 C-236.83616211 522.64881348 -237.29732422 522.04762695 -237.77246094 521.42822266 C-257.33911095 495.85689324 -271.28453177 467.71722085 -281.59399414 437.32519531 C-282.19671124 435.29071432 -282.19671124 435.29071432 -283.375 434.25 C-285.39908755 434.34002398 -287.42044287 434.49641038 -289.4375 434.6875 C-290.54222656 434.78933594 -291.64695312 434.89117187 -292.78515625 434.99609375 C-294.06712891 435.12177734 -294.06712891 435.12177734 -295.375 435.25 C-294.96056473 433.97843723 -294.54324702 432.7078141 -294.125 431.4375 C-293.7393689 430.23806763 -293.7393689 430.23806763 -293.34594727 429.0144043 C-292.375 426.25 -292.375 426.25 -291.23901367 423.82275391 C-287.60969359 415.71052393 -288.78749337 409.84892946 -290.9375 401.4375 C-291.53224924 398.88425053 -292.1207296 396.32953318 -292.703125 393.7734375 C-292.99380859 392.51241211 -293.28449219 391.25138672 -293.58398438 389.95214844 C-294.93947161 383.60813349 -295.7471793 377.21201357 -296.52368164 370.77612305 C-296.62543701 369.93863525 -296.72719238 369.10114746 -296.83203125 368.23828125 C-296.91428955 367.51165283 -296.99654785 366.78502441 -297.08129883 366.03637695 C-297.30052463 364.15213162 -297.30052463 364.15213162 -298.375 362.25 C-299.40947266 363.88195312 -299.40947266 363.88195312 -300.46484375 365.546875 C-317.65759096 392.50773866 -337.4642434 415.5592726 -364.375 433.25 C-365.29539062 433.85714844 -366.21578125 434.46429688 -367.1640625 435.08984375 C-392.82778704 451.03026984 -426.52806549 457.82257827 -456.39453125 452.53125 C-459.86061096 451.64598968 -463.07155232 450.61446752 -466.375 449.25 C-467.2825 448.899375 -468.19 448.54875 -469.125 448.1875 C-475.97745038 445.17910715 -481.11274176 440.48559139 -486.375 435.25 C-487.014375 434.64542969 -487.65375 434.04085938 -488.3125 433.41796875 C-501.7876475 419.61195825 -504.63232913 398.71859151 -504.6237793 380.30908203 C-504.31238318 355.57213316 -496.47322825 332.14943116 -485.375 310.25 C-486.93347656 309.50556641 -486.93347656 309.50556641 -488.5234375 308.74609375 C-496.6157526 304.82773005 -504.28591287 300.84664774 -511.375 295.25 C-512.13039063 294.66992188 -512.88578125 294.08984375 -513.6640625 293.4921875 C-524.60686446 284.50480032 -532.02368349 272.25004053 -534.375 258.25 C-535.27894275 248.03989249 -533.88180831 238.13334378 -527.3125 229.9375 C-514.71546535 217.01815316 -497.56796311 213.15814603 -480.125 212.9375 C-458.75572845 213.03635368 -435.05913019 219.64073405 -419.0859375 234.4140625 C-417.33367816 235.50066416 -417.33367816 235.50066416 -415.125 234.66015625 C-411.68771507 232.89757122 -408.33939316 231.0014894 -405 229.0625 C-372.40014192 210.52203088 -334.1934977 200.76123803 -296.77734375 208.203125 C-292.70964933 209.45472328 -289.11009492 211.2326007 -285.375 213.25 C-284.99130249 212.1347998 -284.99130249 212.1347998 -284.59985352 210.99707031 C-270.62169968 170.57906257 -252.296383 130.02312576 -222.53515625 98.55078125 C-220.67970048 96.57453631 -218.90659554 94.55993462 -217.13671875 92.5078125 C-207.53634881 81.49776799 -197.01488949 71.08799037 -185.375 62.25 C-184.1885063 61.32329524 -183.00233044 60.39618345 -181.81640625 59.46875 C-158.66093498 41.5421222 -132.9190137 27.21981157 -105.375 17.25 C-104.28541992 16.8470874 -104.28541992 16.8470874 -103.17382812 16.43603516 C-70.04905979 4.28778867 -35.10335031 0.02483538 0 0 Z M-119.89550781 71.83789062 C-120.8766484 72.7743456 -121.86295247 73.70542231 -122.85449219 74.63085938 C-131.82088742 83.01210423 -139.18698199 92.32290435 -146.375 102.25 C-146.80490234 102.82991699 -147.23480469 103.40983398 -147.67773438 104.00732422 C-183.94213221 153.19200872 -199.34787732 218.60800693 -205.375 278.25 C-205.47288818 279.21848877 -205.57077637 280.18697754 -205.67163086 281.18481445 C-206.5157591 290.64840522 -206.48913939 300.07157005 -206.4375 309.5625 C-206.43247003 311.18945173 -206.4279098 312.81640499 -206.42382812 314.44335938 C-206.41295245 318.37894475 -206.39577226 322.31445493 -206.375 326.25 C-205.49183105 325.93168213 -205.49183105 325.93168213 -204.59082031 325.60693359 C-197.72255422 323.20936095 -191.5775047 321.78825923 -184.5 324.25 C-180.43859037 328.07250318 -178.17736761 332.70832042 -177.9375 338.3125 C-178.71246716 345.28720445 -181.06008031 349.69435455 -186.375 354.25 C-190.7605571 357.68732854 -193.98320019 357.68482257 -199.375 357.25 C-200.365 356.59 -201.355 355.93 -202.375 355.25 C-202.23191406 354.32767578 -202.23191406 354.32767578 -202.0859375 353.38671875 C-201.91964844 352.17435547 -201.91964844 352.17435547 -201.75 350.9375 C-201.63398437 350.13699219 -201.51796875 349.33648437 -201.3984375 348.51171875 C-201.15966593 345.96276785 -201.15966593 345.96276785 -203.375 343.25 C-204.365 343.58 -205.355 343.91 -206.375 344.25 C-200.71673058 417.02535069 -185.46959708 492.78161167 -133.375 547.25 C-132.48941406 548.1884375 -131.60382813 549.126875 -130.69140625 550.09375 C-99.97749584 581.83294334 -56.48855725 598.37216124 -12.70117188 599.51490784 C-8.90449106 599.5758112 -5.10955486 599.58102705 -1.3125 599.5625 C-0.50995789 599.56034485 0.29258423 599.5581897 1.1194458 599.55596924 C53.4375955 599.33186148 96.05894675 581.65552978 133.1484375 544.73828125 C145.08354642 532.12723574 154.61342205 517.59841507 162.625 502.25 C162.95274414 501.63543945 163.28048828 501.02087891 163.61816406 500.38769531 C174.82138356 479.32742271 185.23743756 455.78472682 189.625 432.25 C188.97273438 431.981875 188.32046875 431.71375 187.6484375 431.4375 C181.16614229 428.53098415 177.01704854 425.57154501 173.625 419.25 C163.61554454 392.86143561 183.50948081 359.88664139 194.125 336.1875 C194.57936432 335.16678909 194.57936432 335.16678909 195.04290771 334.12545776 C195.90599723 332.19317087 196.779127 330.2657944 197.65625 328.33984375 C198.40745117 326.68263306 198.40745117 326.68263306 199.17382812 324.99194336 C200.625 322.25 200.625 322.25 202.26660156 320.61279297 C205.33290334 317.53657146 204.61381963 311.51488667 204.65039062 307.37744141 C204.13058056 268.3854981 198.8894037 228.90122895 188.625 191.25 C188.37169922 190.3101123 188.11839844 189.37022461 187.85742188 188.40185547 C179.72585642 158.73386949 167.46298985 128.47148015 149.625 103.25 C148.92117188 102.25484375 148.21734375 101.2596875 147.4921875 100.234375 C126.14098292 71.00082608 98.22502162 46.23643606 63.625 34.25 C62.99078125 34.02860352 62.3565625 33.80720703 61.703125 33.57910156 C44.43355109 27.69881165 25.84084479 24.72127607 7.625 24.25 C5.79775391 24.19005859 5.79775391 24.19005859 3.93359375 24.12890625 C-43.51022099 23.31503657 -85.54222716 39.00186099 -119.89550781 71.83789062 Z M-401.375 252.25 C-400.68664062 253.31927734 -400.68664062 253.31927734 -399.984375 254.41015625 C-390.375 269.40966387 -390.375 269.40966387 -390.375 272.25 C-392.48046875 272.6875 -392.48046875 272.6875 -395.375 272.25 C-397.79792975 270.1817767 -399.71068375 267.73843455 -401.6875 265.25 C-402.23728516 264.58226562 -402.78707031 263.91453125 -403.35351562 263.2265625 C-404.70727114 261.57851231 -406.04292597 259.91562367 -407.375 258.25 C-424.51360093 269.67573396 -437.03198231 288.38951445 -448.375 305.25 C-448.045 305.91 -447.715 306.57 -447.375 307.25 C-394.84974497 308.19863617 -345.9056889 294.40895367 -306.375 258.25 C-310.28934528 250.63877306 -316.53621141 246.98885385 -324.375 244.25 C-332.0379752 242.30178597 -338.82471601 244.37556755 -346.375 246.25 C-347.25929688 246.46398437 -348.14359375 246.67796875 -349.0546875 246.8984375 C-350.83166719 247.33477771 -352.6041097 247.78956852 -354.375 248.25 C-354.25 245.91796875 -354.25 245.91796875 -353.375 243.25 C-350.75 241.73828125 -350.75 241.73828125 -347.375 240.5625 C-346.281875 240.16675781 -345.18875 239.77101562 -344.0625 239.36328125 C-336.49345727 237.07813593 -329.48190454 235.8604098 -321.5625 235.875 C-320.25526978 235.87632935 -320.25526978 235.87632935 -318.92163086 235.87768555 C-309.67128198 236.04668478 -302.21827971 238.35321177 -294.375 243.25 C-290.21478077 232.96952783 -290.21478077 232.96952783 -291.375 222.25 C-294.7201808 217.5870207 -298.96501737 215.74442512 -304.375 214.25 C-307.51289337 213.82333705 -310.58629313 213.77318767 -313.75 213.8125 C-315.05275879 213.82385986 -315.05275879 213.82385986 -316.38183594 213.83544922 C-347.95803506 214.62112653 -378.22463239 231.82954386 -401.375 252.25 Z M-515.8125 232.625 C-522.10410395 240.85933718 -522.14346055 249.18530142 -521.375 259.25 C-519.52140554 270.47969311 -512.64516539 281.42595788 -503.5 288.125 C-496.47790938 293.10567531 -487.92110347 298.59117402 -479.375 300.25 C-478.90191406 299.59515625 -478.42882812 298.9403125 -477.94140625 298.265625 C-475.75997715 295.25499771 -473.56740533 292.25264209 -471.375 289.25 C-470.66601562 288.26644531 -469.95703125 287.28289062 -469.2265625 286.26953125 C-463.73406867 278.76444492 -457.7811935 271.96735147 -451.375 265.25 C-450.59640625 264.40695312 -449.8178125 263.56390625 -449.015625 262.6953125 C-443.37213628 256.76775556 -437.19874462 251.92604824 -430.5559082 247.18359375 C-429.88519287 246.70019531 -429.21447754 246.21679688 -428.5234375 245.71875 C-427.91677246 245.29013672 -427.31010742 244.86152344 -426.68505859 244.41992188 C-426.25273926 244.03384766 -425.82041992 243.64777344 -425.375 243.25 C-425.375 242.59 -425.375 241.93 -425.375 241.25 C-449.01169489 224.17032844 -491.93932501 207.059106 -515.8125 232.625 Z M-306.0625 276.6875 C-348.88183718 310.32442833 -402.70170133 317.08594801 -455.375 316.25 C-471.42244736 347.83114808 -484.72773181 381.82108329 -473.25 417.375 C-469.06386589 428.34682089 -462.77754307 436.60520918 -452.375 442.25 C-435.76597277 449.47131619 -416.22293033 447.03986119 -399.6875 440.9375 C-397.57384077 440.06429935 -395.4691532 439.16899787 -393.375 438.25 C-391.94994141 437.63898438 -391.94994141 437.63898438 -390.49609375 437.015625 C-376.32983581 430.46252609 -363.93115888 420.57111245 -352.84960938 409.69384766 C-351.42030652 408.29436138 -349.96826609 406.91821503 -348.515625 405.54296875 C-341.36644923 398.64623563 -335.3084891 391.18234412 -329.375 383.25 C-328.94832031 382.68941895 -328.52164063 382.12883789 -328.08203125 381.55126953 C-312.93644562 361.59987308 -299.36453172 338.07104243 -298.8125 312.6875 C-298.7421144 310.09501842 -298.67048596 307.50257031 -298.59765625 304.91015625 C-298.54569092 302.98067139 -298.54569092 302.98067139 -298.49267578 301.01220703 C-298.29290063 294.6252047 -297.95778692 288.24446251 -297.59155273 281.86499023 C-297.54844971 281.03040283 -297.50534668 280.19581543 -297.4609375 279.3359375 C-297.4201709 278.6145459 -297.3794043 277.8931543 -297.33740234 277.14990234 C-297.28527456 275.02351664 -297.28527456 275.02351664 -298.375 272.25 C-301.61731642 272.25 -303.63558388 274.72167644 -306.0625 276.6875 Z M199.625 371.25 C198.49390891 374.41452342 197.37126451 377.58198282 196.25 380.75 C195.77433594 382.0803125 195.77433594 382.0803125 195.2890625 383.4375 C192.43447212 391.52550607 190.27713142 398.92559776 190.375 407.5625 C190.36726562 408.26439453 190.35953125 408.96628906 190.3515625 409.68945312 C190.3657903 413.42069405 190.50452448 415.06928671 192.625 418.25 C194.94908748 409.68372991 196.64394613 401.07577469 198.04248047 392.31982422 C198.37930134 390.22322556 198.7303311 388.12930445 199.08203125 386.03515625 C199.30033387 384.69024262 199.51781302 383.34519501 199.734375 382 C199.92999023 380.79859375 200.12560547 379.5971875 200.32714844 378.359375 C200.59334624 375.58044448 200.54010699 373.84896818 199.625 371.25 Z M286.625 403.25 C287.625 405.25 287.625 405.25 287.625 405.25 Z " fill="#F6F5F5" transform="translate(833.375,6.75)"/>
<path d="M0 0 C5.6396364 -0.05166686 11.27911969 -0.08671129 16.91894531 -0.10986328 C18.81447758 -0.11956951 20.70999676 -0.13291395 22.60546875 -0.15087891 C35.58340333 -0.27026467 48.48096066 0.14632091 61.43522644 0.85139084 C86.30462965 2.19212596 111.14154629 2.30778343 136.04248047 2.26074219 C142.16639459 2.2493105 148.29013519 2.25611862 154.41404343 2.26767731 C177.84508241 2.30455185 201.21836753 2.32289892 224.59335327 0.52301025 C225.2740324 0.47407875 225.95471153 0.42514725 226.6560173 0.37473297 C228.44160198 0.2443973 230.22608309 0.09917042 232.01040649 -0.04742432 C236.09448007 0.01736188 238.86165989 0.88646033 241.79296875 3.75390625 C243.34115262 6.63483092 243.36591188 8.67937506 243.3125 11.9375 C243.30863281 12.95714844 243.30476563 13.97679687 243.30078125 15.02734375 C242.99305515 18.06863672 242.37755807 20.27895772 241 23 C238.61530241 24.1923488 237.23072818 24.09697573 234.57299805 24.05004883 C233.65411301 24.03706253 232.73522797 24.02407623 231.78849792 24.01069641 C230.7896608 23.99298691 229.79082367 23.9752774 228.76171875 23.95703125 C226.63998362 23.93461261 224.51823811 23.91316059 222.39648438 23.89257812 C219.05692252 23.85572947 215.71789525 23.81304497 212.37866211 23.75317383 C196.32659567 23.47883073 181.18178537 23.35317336 168 34 C162.89683357 40.13465751 162.85233191 47.02349259 162.87974548 54.64961243 C162.87889106 55.51959765 162.87803663 56.38958288 162.87715632 57.28593129 C162.87550962 60.20016331 162.88100966 63.11433774 162.88647461 66.02856445 C162.88675668 68.11794534 162.88659836 70.20732632 162.8860321 72.29670715 C162.88574491 77.96979253 162.89162907 83.64285681 162.89860606 89.31593728 C162.90485256 95.24433043 162.90544443 101.17272406 162.90663147 107.10112 C162.90974095 118.32781979 162.9179492 129.55450985 162.92798096 140.78120536 C162.93915396 153.56221348 162.94465554 166.34322206 162.94967639 179.12423384 C162.96013211 205.41616129 162.97772417 231.7080801 163 258 C163.90431007 257.18432556 163.90431007 257.18432556 164.82688904 256.35217285 C165.62579056 255.63589722 166.42469208 254.91962158 167.24780273 254.18164062 C168.03630112 253.47285767 168.8247995 252.76407471 169.63719177 252.03381348 C172.92562373 249.20325908 176.40135351 246.81720902 180.0625 244.5 C180.79581543 244.03279541 181.52913086 243.56559082 182.28466797 243.08422852 C189.60834289 238.49769257 197.15069811 234.5994317 205 231 C205.82145508 230.62020996 206.64291016 230.24041992 207.48925781 229.84912109 C237.21981895 216.21391916 268.72309832 206.09253045 300.1875 197.25 C307.43988916 195.21100668 313.80525348 192.9069228 320.421875 189.2890625 C328.41977202 185.29011399 338.13999185 183.68835874 347 185 C349.22900224 186.16921015 351.21444171 187.21444171 353 189 C353.37510672 192.9011099 353.43027318 195.25993012 351.4375 198.6875 C343.97063184 205.77145185 336.60611566 206.27362626 326.703125 206.16796875 C322.46980529 205.97595108 319.05434734 205.15838496 315 204 C311.59861897 203.46293984 309.32207124 203.1802542 306.32421875 205.0390625 C286.53923657 222.77732239 279.75891836 255.98936987 272.0625 280.25 C254.86470319 334.41483338 233.92206378 396.16500614 187 432 C186.11441406 432.68964844 185.22882813 433.37929688 184.31640625 434.08984375 C179.45976735 437.76228042 174.53152411 440.889904 169.1484375 443.7421875 C167.99263184 444.35690918 166.83682617 444.97163086 165.64599609 445.60498047 C164.77281738 446.06533691 163.89963867 446.52569336 163 447 C162.92979837 462.88174716 162.87695734 478.76345215 162.84456348 494.64531612 C162.82912007 502.02018877 162.80807913 509.39496478 162.77368164 516.76977539 C162.74370162 523.20056764 162.72440665 529.63128987 162.71773452 536.06215006 C162.71383675 539.46463191 162.70472982 542.86691354 162.68280983 546.26933098 C162.66098003 550.07542588 162.65803549 553.88110826 162.65942383 557.68725586 C162.648638 558.80503922 162.63785217 559.92282257 162.6267395 561.07447815 C162.65724019 568.82031208 163.19308165 575.84221686 168.5 581.8125 C177.91204769 588.61270446 189.25065089 589.14666 200.3828125 588.9921875 C202.62369346 588.97468046 204.86457916 588.9577713 207.10546875 588.94140625 C210.62562174 588.9103765 214.14553782 588.87473092 217.66552734 588.82861328 C221.0713196 588.78635544 224.47683021 588.76286415 227.8828125 588.7421875 C228.937034 588.72356659 229.99125549 588.70494568 231.0774231 588.6857605 C232.05879242 588.68230621 233.04016174 588.67885193 234.05126953 588.67529297 C234.91253448 588.66561493 235.77379944 588.65593689 236.66116333 588.64596558 C239.55221705 589.08359021 240.89413424 589.9974316 243 592 C245.10988441 598.32965324 244.8000144 605.93330213 242 612 C239.37094619 614.62905381 237.4978687 614.24586444 233.91830444 614.25231934 C233.0506546 614.24124146 232.18300476 614.23016357 231.2890625 614.21875 C230.36429108 614.2125061 229.43951965 614.20626221 228.48672485 614.1998291 C217.2080438 614.06489709 205.94938285 613.41521307 194.68750668 612.8250761 C138.19432453 609.88010172 80.95796355 608.78386026 24.59623718 614.31295776 C3.19439089 616.38930592 3.19439089 616.38930592 -1.40625 613.4765625 C-3.61656156 610.04191169 -3.51079977 606.94534078 -3.375 603 C-3.37371094 602.2884375 -3.37242188 601.576875 -3.37109375 600.84375 C-3.30870256 597.12800799 -3.17895919 594.09072225 -1 591 C2.1379962 589.4310019 5.47114756 589.94252072 8.91015625 590.0078125 C10.55793606 590.02537527 12.20572299 590.04227887 13.85351562 590.05859375 C16.43323031 590.08912865 19.01257667 590.12408451 21.59204102 590.17138672 C38.22782115 590.46014039 57.39297624 590.27347853 71.125 579.5625 C75.14956173 574.06226563 75.28927493 568.60365079 75.25447559 562.05649853 C75.25768207 561.1624989 75.26088855 560.26849927 75.26419219 559.34740874 C75.27251447 556.34223325 75.26656005 553.3372559 75.26069641 550.33207703 C75.26371608 548.1595418 75.26760463 545.98700763 75.27228898 543.81447536 C75.2826016 537.83675935 75.28037885 531.85910309 75.27610838 525.88138211 C75.27364706 519.43748581 75.28264795 512.99360412 75.29014587 506.54971313 C75.30333574 493.9222114 75.30469005 481.29472863 75.30234561 468.66722139 C75.30051349 458.4052338 75.30227085 448.14325245 75.30657005 437.88126564 C75.30717245 436.40732228 75.30777365 434.93337892 75.30837366 433.45943556 C75.3092809 431.23837805 75.31018957 429.01732055 75.31110601 426.79626305 C75.31953686 406.14308126 75.32387035 385.48990183 75.31969929 364.83671856 C75.31946472 363.66860212 75.31946472 363.66860212 75.31922542 362.47688736 C75.31841963 358.52984251 75.31757386 354.58279766 75.31671212 350.63575282 C75.31654103 349.85184843 75.31636994 349.06794404 75.31619367 348.26028497 C75.31584702 346.67503922 75.31549849 345.08979346 75.31514808 343.5045477 C75.30979108 318.83903654 75.31772018 294.17356113 75.33618164 269.50805664 C75.35689624 241.79974704 75.36762534 214.09145959 75.36360615 186.38314182 C75.36321081 183.42882177 75.36284926 180.47450171 75.36250877 177.52018166 C75.36237268 176.42902991 75.36237268 176.42902991 75.36223383 175.3158347 C75.36106767 164.33269058 75.36771757 153.34956882 75.37832069 142.36643028 C75.39036734 129.87525395 75.39165941 117.38413041 75.37953053 104.89295324 C75.37362924 98.51824857 75.37257696 92.14364022 75.38453293 85.76894188 C75.395349 79.93426502 75.39233933 74.09976541 75.37827124 68.265097 C75.3756125 66.153421 75.37802758 64.04173129 75.38600711 61.93006869 C75.39609975 59.06017328 75.38770237 56.19089556 75.37473011 53.32102489 C75.38203946 52.50089305 75.3893488 51.68076122 75.39687964 50.8357769 C75.33096144 43.80174009 74.21815486 37.37290985 69.3125 32.125 C56.81343787 24.10673373 42.72704805 24.77798538 28.4375 25 C24.9778745 25.05364256 21.5184833 25.09339996 18.05859375 25.125 C17.28333847 25.14159668 16.50808319 25.15819336 15.70933533 25.17529297 C10.33345286 25.2227829 5.1201271 24.74338226 0 23 C-2.60909589 20.39090411 -2.26108967 18.53273684 -2.2734375 14.9765625 C-2.26570313 14.20054688 -2.25796875 13.42453125 -2.25 12.625 C-2.25773437 11.85671875 -2.26546875 11.0884375 -2.2734375 10.296875 C-2.27085938 9.55179688 -2.26828125 8.80671875 -2.265625 8.0390625 C-2.26336914 7.36053223 -2.26111328 6.68200195 -2.25878906 5.98291016 C-1.95608702 3.66352716 -1.14048018 2.02670236 0 0 Z M175.41162109 267.55664062 C171.93863828 271.10770849 168.81211148 274.90906288 166 279 C165.31333252 279.99290039 164.62666504 280.98580078 163.91918945 282.00878906 C161.29494091 286.66139598 161.49287193 291.08127167 161.609375 296.30859375 C161.61503479 297.27531509 161.62069458 298.24203644 161.62652588 299.23805237 C161.64879469 302.30505319 161.69897351 305.37085636 161.75 308.4375 C161.77007727 310.52537367 161.78832588 312.61326578 161.8046875 314.70117188 C161.84862841 319.80123792 161.91759017 324.90041638 162 330 C163.07886475 330.48533203 164.15772949 330.97066406 165.26928711 331.47070312 C165.87614853 331.74370239 166.48300995 332.01670166 167.10826111 332.29797363 C177.67950505 336.2209738 189.26053354 332.06838472 199 328 C200.99443001 327.31685041 202.99288486 326.64492889 205 326 C205 327.98 205 329.96 205 332 C199.41445854 334.03110599 193.77118534 335.64882249 188 337.0625 C187.36779541 337.22459961 186.73559082 337.38669922 186.08422852 337.55371094 C178.07389526 339.46125558 170.3330714 340.01963866 162 341 C162 369.05 162 397.1 162 426 C201.94284816 391.763273 224.27362939 335.47795243 247.375 289.375 C247.79574799 288.5362735 248.21649597 287.697547 248.6499939 286.83340454 C252.96659455 278.22101045 257.22420188 269.59012269 261.296875 260.859375 C263.98609894 255.09769055 266.74773282 249.41527359 269.875 243.875 C270.28862793 243.13765625 270.70225586 242.4003125 271.12841797 241.640625 C277.06100516 231.21324639 283.6567045 221.30014216 291.30859375 212.05078125 C292.93681825 210.07660605 294.48048552 208.05854713 296 206 C255.43659866 206 203.26816411 240.214789 175.41162109 267.55664062 Z " fill="#F5F5F5" transform="translate(1230,14)"/>
<path d="M0 0 C3.91652632 -0.08714316 7.83280311 -0.14043985 11.75 -0.1875 C12.86117188 -0.21263672 13.97234375 -0.23777344 15.1171875 -0.26367188 C16.18710938 -0.27333984 17.25703125 -0.28300781 18.359375 -0.29296875 C19.34389648 -0.3086792 20.32841797 -0.32438965 21.34277344 -0.34057617 C24.39282409 0.05034818 25.74113723 0.96842944 28 3 C27.50010015 9.13380135 26.07769203 13.87645376 23.52734375 19.44921875 C23.17293213 20.24686142 22.81852051 21.04450409 22.45336914 21.86631775 C21.29085515 24.47771046 20.1140396 27.08240051 18.9375 29.6875 C18.11601842 31.52792543 17.29580577 33.36891774 16.47680664 35.21044922 C15.2184356 38.03969777 13.95938697 40.8686177 12.69651794 43.69586182 C8.70218191 52.6403716 4.80982721 61.62715972 0.9375 70.625 C-0.35843397 73.63191685 -1.6554755 76.63835438 -2.953125 79.64453125 C-3.27649841 80.39377869 -3.59987183 81.14302612 -3.93304443 81.91497803 C-6.49715205 87.84985583 -9.08162008 93.77571221 -11.671875 99.69921875 C-12.25532936 101.03418396 -12.25532936 101.03418396 -12.85057068 102.39611816 C-14.73312711 106.70289644 -16.61786679 111.00869748 -18.50610352 115.31298828 C-19.18774539 116.87138313 -19.86930867 118.42981236 -20.55078125 119.98828125 C-20.8563092 120.6824968 -21.16183716 121.37671234 -21.47662354 122.09196472 C-23.47757539 126.67530142 -25.27666477 131.30496791 -27 136 C-26.51233154 135.50185791 -26.02466309 135.00371582 -25.5222168 134.49047852 C-16.69522879 125.49923847 -7.9951715 116.69596272 2 109 C2.84820313 108.29617188 3.69640625 107.59234375 4.5703125 106.8671875 C12.6371592 100.18181913 20.15006333 94.62001957 30.97265625 94.78125 C34.96942414 95.21250048 37.91970239 96.85041964 40.64453125 99.75 C43.52527953 104.53187611 42.63149919 111.0530038 41.49609375 116.3515625 C38.7029877 124.61915641 32.69880121 130.16931609 25 134 C21.05547653 135.07922162 17.64994339 135.66699839 13.796875 134.109375 C12 133 12 133 11.0625 131.25 C11 129 11 129 12.5625 126 C14.36024441 123.14730804 14.36024441 123.14730804 13.1875 120.625 C12.795625 120.08875 12.40375 119.5525 12 119 C7.22666951 118.49754416 4.17771933 118.34412317 0.3125 121.375 C-7.77888918 129.26318077 -9.9597053 140.15083435 -10.25 151.0625 C-9.89558282 164.30102409 -5.61571185 176.40449672 3.66796875 185.99609375 C7.97465489 189.696814 11.79643313 190.71954603 17.4375 191.4375 C27.28777192 190.22781748 34.23427672 184.42472485 40.5 177.0625 C40.995 176.381875 41.49 175.70125 42 175 C45.16115776 176.36983503 45.9927092 176.9890638 48 180 C39.46964142 191.5246006 29.58441057 201.22377971 15 204 C6.02439498 204.9059883 -2.11114698 204.5324944 -9.5625 199.1484375 C-18.51442312 191.60857369 -24.246409 182.66138013 -26 171 C-26.68465052 161.58605531 -26.19934442 152.98863431 -23 144 C-34.87052328 156.23526003 -42.65125828 170.64903273 -50.3359375 185.71484375 C-51.02381348 187.06231689 -51.02381348 187.06231689 -51.72558594 188.43701172 C-52.53491953 190.0646715 -53.31765504 191.70604594 -54.06347656 193.36376953 C-56.01943194 197.65453651 -57.38450071 200.22975969 -62 202 C-64.9254378 202.5934111 -67.84167674 202.91606686 -70.8125 203.1875 C-71.60076172 203.26935547 -72.38902344 203.35121094 -73.20117188 203.43554688 C-75.13302376 203.63458616 -77.06639413 203.81879107 -79 204 C-78.44150307 199.86220035 -77.51267428 196.47216556 -75.76171875 192.6875 C-75.2819458 191.6365918 -74.80217285 190.58568359 -74.30786133 189.50292969 C-73.77314209 188.34696289 -73.23842285 187.19099609 -72.6875 186 C-71.49232169 183.38250385 -70.30426986 180.7618013 -69.1171875 178.140625 C-68.79468521 177.42956604 -68.47218292 176.71850708 -68.13990784 175.98590088 C-63.75472714 166.28866167 -59.54367025 156.51511899 -55.3125 146.75 C-53.58135275 142.75884387 -51.84940362 138.76803608 -50.1171875 134.77734375 C-49.68736572 133.78699631 -49.25754395 132.79664886 -48.81469727 131.77629089 C-44.54565746 121.94476602 -40.24806017 112.12588264 -35.9375 102.3125 C-35.57418579 101.48536499 -35.21087158 100.65822998 -34.83654785 99.80603027 C-29.33834409 87.29260366 -23.81905255 74.78851098 -18.29364014 62.28707886 C-17.07944788 59.53836694 -15.86689952 56.7889354 -14.65478516 54.03930664 C-8.28384829 39.59513329 -8.28384829 39.59513329 -5.21009827 32.85107422 C-4.39290442 31.05794692 -3.58098165 29.26242024 -2.76928711 27.46679688 C-1.83829944 25.4110413 -0.89735876 23.35974527 0.05639648 21.31445312 C2.55426967 15.77329309 4.40967405 11.08277788 2.31518555 5.01660156 C1.60611979 3.3168824 0.81009917 1.65395248 0 0 Z " fill="#FEFCFA" transform="translate(1675,238)"/>
<path d="M0 0 C3.74993479 -0.05811773 7.49975352 -0.09363593 11.25 -0.125 C12.84521484 -0.15013672 12.84521484 -0.15013672 14.47265625 -0.17578125 C16.00986328 -0.18544922 16.00986328 -0.18544922 17.578125 -0.1953125 C18.52075195 -0.20578613 19.46337891 -0.21625977 20.43457031 -0.22705078 C23.09951941 0.00880787 24.71863092 0.64338341 27 2 C27.80151099 9.19304736 24.94827112 14.74540034 22.125 21.25 C21.58878889 22.51149291 21.05392108 23.77355748 20.52026367 25.03613281 C19.33772314 27.82993527 18.14864874 30.62084002 16.95556641 33.41015625 C13.7451679 40.92865392 10.60566114 48.47704936 7.45376587 56.02020264 C6.30084826 58.77786982 5.14618358 61.53479914 3.9909668 64.29150391 C-1.92058438 78.39980461 -7.79902329 92.52161728 -13.64379883 106.65771484 C-14.33930329 108.33953981 -15.03486004 110.02134315 -15.73046875 111.703125 C-16.07509659 112.53635284 -16.41972443 113.36958069 -16.77479553 114.22805786 C-19.01598122 119.64053087 -21.2737802 125.04581927 -23.54191589 130.447052 C-25.11229228 134.18779452 -26.67773688 137.93059226 -28.2428894 141.67352295 C-28.98680522 143.4486777 -29.73309281 145.22284073 -30.48196411 146.99591064 C-40.14040347 168.23253446 -40.14040347 168.23253446 -38.625 190.75 C-36.88435866 193.16011878 -36.07664367 193.81669213 -33.1875 194.30859375 C-24.23314531 194.83626108 -18.21144982 189.99930966 -11.5625 184.5 C-5.60776045 178.975092 -0.7751953 172.54127037 4 166 C4.44021484 165.39736328 4.88042969 164.79472656 5.33398438 164.17382812 C17.00164609 147.97164915 29.69087416 125.95641023 26.59375 105.2890625 C25.50695408 101.29120607 24.96525634 99.60523415 21.33984375 97.33203125 C17.71726853 95.88723809 14.49095504 95.28662656 10.625 94.8125 C9.37976562 94.65394531 8.13453125 94.49539063 6.8515625 94.33203125 C5.91054687 94.22246094 4.96953125 94.11289062 4 94 C3.375 91.625 3.375 91.625 3 89 C5.69510494 86.30489506 7.17222105 86.66977145 10.9375 86.625 C20.61430479 86.8065736 28.31875831 89.38217825 35.34765625 96.15234375 C43.4017907 105.15850355 43.68966643 116.44684386 43.15234375 127.96435547 C42.40774947 137.91375788 39.27482543 147.05950795 35 156 C34.56945313 156.90234375 34.13890625 157.8046875 33.6953125 158.734375 C24.52150778 176.6673492 9.86189247 192.88947926 -9.5625 199.5 C-11.36361219 200.03958423 -13.17609699 200.5433447 -15 201 C-15.73734375 201.18949219 -16.4746875 201.37898437 -17.234375 201.57421875 C-27.45515179 203.14775642 -41.1919838 204.1476358 -50 198 C-56.44538934 192.26169978 -58.47480546 185.99785706 -59.00170898 177.51708984 C-58.99665935 167.12494052 -55.20637613 156.64586539 -51.9375 146.875 C-51.6276265 145.94592331 -51.6276265 145.94592331 -51.31149292 144.99807739 C-44.57385429 124.94404004 -36.18675463 105.49337254 -28 86 C-27.58911133 85.02053406 -27.17822266 84.04106812 -26.75488281 83.03192139 C-19.96392269 66.84607083 -13.14438442 50.67188219 -6.23588562 34.53579712 C-5.42872932 32.65020249 -4.62318713 30.76392676 -3.81811523 28.87744141 C-2.89362447 26.71377955 -1.96511793 24.5518265 -1.03149414 22.39208984 C-0.63696045 21.4686377 -0.24242676 20.54518555 0.1640625 19.59375 C0.66607178 18.42875977 0.66607178 18.42875977 1.17822266 17.24023438 C2.91743732 12.49898847 3.17239386 9.51718159 1.5625 4.6875 C1.27503906 3.80449219 0.98757813 2.92148438 0.69140625 2.01171875 C0.34916016 1.01591797 0.34916016 1.01591797 0 0 Z " fill="#FEFCFA" transform="translate(1560,238)"/>
<path d="M0 0 C1.80791016 0.00966797 1.80791016 0.00966797 3.65234375 0.01953125 C5.53373047 0.04466797 5.53373047 0.04466797 7.453125 0.0703125 C8.72285156 0.07933594 9.99257813 0.08835937 11.30078125 0.09765625 C14.43508593 0.12122245 17.56901041 0.15412418 20.703125 0.1953125 C19.96868164 0.91654297 19.23423828 1.63777344 18.47753906 2.38085938 C10.64273743 10.32872925 4.90469079 18.72364458 -0.046875 28.6953125 C-0.6339624 29.85442139 -1.2210498 31.01353027 -1.82592773 32.20776367 C-3.36197107 35.24780278 -4.87769423 38.29746193 -6.38568115 41.35150146 C-7.29230725 43.18606961 -8.20353071 45.01829159 -9.11572266 46.85009766 C-10.87859854 50.39537258 -12.62164817 53.95013519 -14.359375 57.5078125 C-15.14489746 59.10496094 -15.14489746 59.10496094 -15.94628906 60.734375 C-24.89070216 78.23445148 -24.89070216 78.23445148 -25.421875 97.1953125 C-24.5917096 100.03841222 -24.5917096 100.03841222 -23.296875 101.1953125 C-17.48603011 102.04272738 -14.28751323 100.55670689 -9.6015625 97.1171875 C14.35884982 77.13664028 29.57648973 40.94535061 42.5703125 13.26953125 C43.06789063 12.21378906 43.56546875 11.15804688 44.078125 10.0703125 C44.45710937 9.22210938 44.83609375 8.37390625 45.2265625 7.5 C47.2974756 4.26762241 49.2312527 1.85194192 52.703125 0.1953125 C56.84880728 -0.4012631 60.90101863 -0.27708851 65.078125 -0.1171875 C66.75455078 -0.08334961 66.75455078 -0.08334961 68.46484375 -0.04882812 C71.2123239 0.00987872 73.95702261 0.09194404 76.703125 0.1953125 C71.19248924 7.58710265 71.19248924 7.58710265 68.7890625 10.57421875 C52.44951173 31.42766368 34.95386866 65.39207576 35.234375 92.4609375 C35.77907437 95.63835046 36.81423336 97.59866098 38.703125 100.1953125 C41.2721553 101.44312722 42.80164176 101.47388243 45.5234375 100.6328125 C53.50136042 97.12878361 59.28811997 90.55365421 63.703125 83.1953125 C68.453125 83.9453125 68.453125 83.9453125 70.703125 86.1953125 C62.76397812 97.15889628 55.1052626 107.7279333 41.703125 112.1953125 C29.72748335 113.10278348 29.72748335 113.10278348 24.078125 110.5703125 C17.94445584 104.43664334 16.31362511 98.71228942 15.703125 90.1953125 C15.82859855 85.83162133 16.18586696 81.5290961 16.703125 77.1953125 C16.30222656 77.86175781 15.90132812 78.52820313 15.48828125 79.21484375 C7.99930962 91.35682722 -1.84278316 106.24664389 -15.74609375 111.60546875 C-23.4133562 113.37844981 -31.85691221 113.56631251 -38.74609375 109.40625 C-42.10400457 106.78420377 -43.96001665 104.20588756 -45.296875 100.1953125 C-46.27628302 88.62430633 -44.49197644 78.97778233 -40.296875 68.1953125 C-39.98524414 67.38787598 -39.67361328 66.58043945 -39.35253906 65.74853516 C-33.8811538 51.77574195 -27.61022253 38.14411546 -21.359375 24.5078125 C-20.9828479 23.68527985 -20.6063208 22.86274719 -20.21838379 22.01528931 C-19.13507222 19.65294851 -18.04705575 17.29284353 -16.95703125 14.93359375 C-16.63237381 14.2262207 -16.30771637 13.51884766 -15.97322083 12.79003906 C-11.43827678 3.02262685 -11.43827678 3.02262685 -8.50292969 0.89501953 C-5.59105409 -0.02855677 -3.05424143 -0.0288136 0 0 Z " fill="#FEFCFA" transform="translate(925.296875,326.8046875)"/>
<path d="M0 0 C2.70139298 2.44843568 3.86034328 3.51120149 4.875 7.0625 C5 10 5 10 3 13 C0.5703125 13.4296875 0.5703125 13.4296875 -2 13 C-3.6953125 11.3203125 -3.6953125 11.3203125 -5.125 9.125 C-7.03094037 6.25063588 -8.04996179 4.96669214 -11 3 C-20.26356321 1.49231522 -27.30734092 3.94315051 -35 9 C-43.66052319 15.24112436 -50.54226333 22.50604006 -57 31 C-57.78761719 31.96164062 -58.57523438 32.92328125 -59.38671875 33.9140625 C-71.36896222 48.77430165 -85.05027416 68.82942449 -85.1875 88.5625 C-85.20876953 89.95662109 -85.20876953 89.95662109 -85.23046875 91.37890625 C-84.98859138 94.12974891 -84.54976012 95.72427252 -83 98 C-78.45009944 99.61142311 -75.64798266 99.1758682 -71.25 97.25 C-52.17051977 86.69846926 -41.29841364 63.43426554 -31.328125 45.1015625 C-18.69193589 21.89731196 -18.69193589 21.89731196 -10 19 C-3.61123677 18.77182988 2.64736392 19.34605217 9 20 C7.44798679 23.28074079 5.58337853 26.2592474 3.625 29.3125 C-9.23817557 49.91734518 -22.54211048 73.00346506 -21 98 C-20.67 98.66 -20.34 99.32 -20 100 C-14.934911 99.5569893 -12.54509296 98.22450807 -8.875 94.75 C-7.63363281 93.59757812 -7.63363281 93.59757812 -6.3671875 92.421875 C-4.0603512 90.06174545 -2.01144152 87.61394705 0 85 C4.875 86.75 4.875 86.75 6 89 C-0.03758357 97.87974392 -6.20883548 106.89068141 -17 110 C-23.23970277 110.64768845 -28.72687011 110.76652135 -34 107 C-39.36869644 101.63130356 -41.07949918 96.5533893 -41.1953125 89.16015625 C-41.18219026 87.46082653 -41.15859335 85.76154831 -41.125 84.0625 C-41.11597656 83.18787109 -41.10695313 82.31324219 -41.09765625 81.41210938 C-41.0742957 79.27461936 -41.03843247 77.13727214 -41 75 C-41.59425781 75.87140625 -42.18851563 76.7428125 -42.80078125 77.640625 C-52.05607211 91.02534492 -61.94276015 104.5114363 -78 110 C-83.63319389 110.75435814 -88.2197813 110.25924002 -93 107 C-100.68420478 99.13709278 -102.26477952 90.6684011 -102.24658203 80.07226562 C-101.7919397 54.08914472 -86.9102231 30.62669797 -69.6875 12.1875 C-52.28241382 -4.47298356 -21.09889022 -17.09173665 0 0 Z M-40 72 C-39 74 -39 74 -39 74 Z " fill="#FEFCFA" transform="translate(1258,330)"/>
<path d="M0 0 C3.74993479 -0.05811773 7.49975352 -0.09363593 11.25 -0.125 C12.84521484 -0.15013672 12.84521484 -0.15013672 14.47265625 -0.17578125 C16.00986328 -0.18544922 16.00986328 -0.18544922 17.578125 -0.1953125 C18.52075195 -0.20578613 19.46337891 -0.21625977 20.43457031 -0.22705078 C23.09951941 0.00880787 24.71863092 0.64338341 27 2 C27.3041439 7.47370474 26.33821063 11.68479597 24.31640625 16.703125 C23.88719376 17.80922371 23.88719376 17.80922371 23.4493103 18.93766785 C22.49832923 21.37969742 21.53054427 23.81468946 20.5625 26.25 C19.87800994 27.99709448 19.19451881 29.74458062 18.51196289 31.49243164 C16.71246289 36.09099771 14.89823721 40.6835977 13.07922363 45.2744751 C11.70992053 48.73258108 10.34645434 52.19297199 8.98306274 55.65341187 C6.25212507 62.58374762 3.51317987 69.51088055 0.76766968 76.43545532 C-8.14864154 98.92376938 -16.98337482 121.44422522 -25.81085205 143.9675293 C-26.91026242 146.77115834 -28.01116401 149.57419523 -29.11279297 152.37695312 C-30.57790796 156.10504204 -32.03858295 159.83482866 -33.49447632 163.56652832 C-34.21884023 165.42025857 -34.94781826 167.2721838 -35.67700195 169.12402344 C-39.79860125 179.538888 -39.79860125 179.538888 -41.375 190.5625 C-41.41753906 191.58537109 -41.41753906 191.58537109 -41.4609375 192.62890625 C-40.7602426 196.2333283 -38.91464415 198.87829758 -37 202 C-40.22899426 202.0875127 -43.45768116 202.14056146 -46.6875 202.1875 C-47.59951172 202.21263672 -48.51152344 202.23777344 -49.45117188 202.26367188 C-58.03230051 202.35728419 -58.03230051 202.35728419 -62 199 C-64.93869537 194.59195695 -64.56981902 191.1711177 -64 186 C-60.44225683 172.81649012 -54.82742778 160.11074203 -49.8125 147.4375 C-48.92111526 145.17611512 -48.03017228 142.91455607 -47.13964844 140.65283203 C-45.31607966 136.02204499 -43.49088231 131.39190512 -41.66455078 126.76220703 C-38.04655803 117.58596326 -34.45198794 108.40058248 -30.86013794 99.21408081 C-29.75154365 96.37894776 -28.64232575 93.54405938 -27.53295898 90.70922852 C-23.88317571 81.38139788 -20.23882426 72.05147053 -16.6015625 62.71875 C-16.06438599 61.34077744 -16.06438599 61.34077744 -15.51635742 59.93496704 C-13.83493538 55.62164766 -12.15431555 51.30802033 -10.47558594 46.99365234 C-10.17152832 46.21373932 -9.8674707 45.43382629 -9.55419922 44.63027954 C-8.95562165 43.09339937 -8.35890736 41.55579205 -7.76416016 40.01742554 C-6.14865844 35.85798494 -4.47387081 31.73236511 -2.72753906 27.62597656 C-2.35223053 26.72968536 -1.976922 25.83339417 -1.59024048 24.90994263 C-0.86770813 23.1892928 -0.13209027 21.47405731 0.61880493 19.76559448 C3.65549525 12.48040757 2.69746068 7.37305919 0 0 Z " fill="#FEFCFA" transform="translate(886,238)"/>
<path d="M0 0 C1.28648437 -0.02578125 2.57296875 -0.0515625 3.8984375 -0.078125 C8.55292244 0.33170386 11.833463 1.5776151 15.26953125 4.78515625 C19.88240509 10.81737589 20.30979407 14.71726525 19.625 22.25 C16.3974991 35.35443135 5.37914092 46.6270057 -5.5625 53.9375 C-17.28594432 61.00435944 -29.8438504 65.44031251 -43.375 67.25 C-46.86575452 79.52997571 -50.43695641 92.12608719 -44.375 104.25 C-41.67947504 107.6194062 -39.6049663 109.00040744 -35.24609375 109.48828125 C-26.0615214 109.76838859 -18.68650586 106.77424887 -11.375 101.25 C-10.85808594 100.87746094 -10.34117187 100.50492187 -9.80859375 100.12109375 C-3.51816566 95.23178189 0.93530021 88.60987456 5.625 82.25 C7.605 82.58 9.585 82.91 11.625 83.25 C11.955 84.24 12.285 85.23 12.625 86.25 C11.40201388 88.61484048 10.15558564 90.73231848 8.6875 92.9375 C8.27363037 93.56527344 7.85976074 94.19304687 7.43334961 94.83984375 C-0.68664193 106.86072206 -10.60859099 113.90740462 -24.72265625 117.5546875 C-34.73681222 119.46112575 -44.27825131 119.15046019 -53.375 114.25 C-61.1526152 108.83321235 -65.6080632 102.63099837 -67.375 93.25 C-70.087833 67.98859774 -59.71980171 45.64906497 -44.375 26.25 C-33.06482685 12.23980586 -18.70387554 0.22399851 0 0 Z M-21.43408203 29.03564453 C-29.13919642 38.61859055 -35.96562972 49.19826871 -41.375 60.25 C-24.88703993 58.29836391 -8.96080437 50.24407487 1.625 37.25 C7.60009018 28.5778205 10.81224847 20.93523621 9.625 10.25 C7.81648176 8.02818218 7.81648176 8.02818218 5.29296875 7.9765625 C-5.88159608 9.12183269 -14.77549301 20.97375017 -21.43408203 29.03564453 Z " fill="#FEFCFA" transform="translate(708.375,322.75)"/>
<path d="M0 0 C5.63877262 4.77226398 8.3299552 10.99772225 9.30151367 18.25097656 C9.43704996 20.53079221 9.46836565 22.77892036 9.4375 25.0625 C9.42775146 25.88685547 9.41800293 26.71121094 9.40795898 27.56054688 C8.8091486 48.65491133 -1.062661 67.75457921 -14 84 C-14.66773438 84.83917969 -15.33546875 85.67835938 -16.0234375 86.54296875 C-27.24601851 99.84974338 -42.11046186 110.3520887 -59.6875 112.4375 C-66.41134459 111.54944505 -73.26610724 110.15158919 -78 105 C-85.34977317 94.11717798 -84.88455548 80.39866346 -82.63037109 67.96044922 C-78.98351433 50.81650537 -70.0851114 33.66535682 -58 21 C-57.56107422 20.51772949 -57.12214844 20.03545898 -56.66992188 19.53857422 C-42.98077384 4.5024064 -20.89164489 -11.77529076 0 0 Z M-37 24 C-52.10399924 41.86952023 -65.87999635 69.17491374 -65 93 C-64.11314301 96.91977251 -62.41873277 100.72084482 -59 103 C-53.46024808 104.84658397 -49.11747734 103.31303198 -44 101 C-22.87116541 89.75284825 -8.65921247 60.18262775 -1.66333008 38.27099609 C0.53602611 30.78220939 2.6819587 22.41656223 -0.25 14.875 C-2.78585121 10.65740408 -2.78585121 10.65740408 -6.9453125 8.34765625 C-19.46405234 6.70989996 -28.83819317 15.41121736 -37 24 Z " fill="#FEFCFA" transform="translate(813,328)"/>
<path d="M0 0 C54.12 0 108.24 0 164 0 C164 2.31 164 4.62 164 7 C109.88 7 55.76 7 0 7 C0 4.69 0 2.38 0 0 Z " fill="#000000" transform="translate(1817,334)"/>
<path d="M0 0 C54.12 0 108.24 0 164 0 C164 2.31 164 4.62 164 7 C109.88 7 55.76 7 0 7 C0 4.69 0 2.38 0 0 Z " fill="#000000" transform="translate(19,319)"/>
<path d="M0 0 C5.75388126 3.26145927 9.88599828 7.72454233 13.0625 13.5 C15.02651425 21.35605698 15.53977916 28.99992027 11.390625 36.2734375 C6.73372691 42.73068279 1.51418546 47.13650346 -6.3125 49 C-14.46249118 50.12245387 -20.46976448 48.49984238 -27.3125 44 C-32.55901733 39.66592047 -36.62009216 33.92407836 -37.3125 27 C-37.91891575 19.11659519 -35.70512621 11.86152217 -30.90625 5.5703125 C-22.80335729 -2.41342003 -10.32178679 -4.71762648 0 0 Z M-27.11328125 13.28125 C-30.32625887 17.88616907 -29.84553622 23.63960757 -29.3125 29 C-27.5543744 34.40498041 -23.7864175 37.76354904 -19.3125 41 C-14.30024506 42.67075165 -9.00793108 43.06531518 -4.01953125 41.09375 C1.40206759 37.92013117 4.67773228 34.02930315 6.6875 28 C7.46381881 21.7561787 7.03646856 16.93131372 3.29296875 11.76171875 C-0.18230621 7.94821751 -3.67420467 5.42408457 -8.83984375 4.59375 C-17.17740836 4.29284541 -21.85921927 6.99292385 -27.11328125 13.28125 Z " fill="#F4F4F4" transform="translate(1443.3125,665)"/>
<path d="M0 0 C5.88839609 4.23069564 10.2242638 9.4478964 11.66015625 16.61328125 C12.74858085 23.61547954 11.89627601 29.53750295 8.57421875 35.8125 C3.0569434 42.52269975 -2.60452854 46.7961145 -11.33984375 47.9765625 C-19.46613322 48.41149067 -25.66190853 46.156321 -31.8125 40.828125 C-37.07256402 35.31443106 -39.30868685 29.63454774 -40.11328125 22.125 C-39.31903238 14.71201052 -36.88987904 7.27030537 -31.13671875 2.21875 C-21.78737457 -4.86533457 -10.29083373 -5.83312958 0 0 Z M-29.5390625 11.90625 C-32.75204012 16.51116907 -32.27131747 22.26460757 -31.73828125 27.625 C-29.98015565 33.02998041 -26.21219875 36.38854904 -21.73828125 39.625 C-16.73506227 41.29273966 -11.49215746 41.64460123 -6.48046875 39.7890625 C-1.39387035 36.90730143 2.22189168 33.14563288 4.26171875 27.625 C5.24654675 22.08736062 5.02051691 17.22334362 2.26171875 12.25 C-1.22869635 7.49834247 -5.34951011 4.16971746 -11.265625 3.21875 C-19.60318961 2.91784541 -24.28500052 5.61792385 -29.5390625 11.90625 Z " fill="#F4F4F4" transform="translate(884.73828125,666.375)"/>
<path d="M0 0 C1.97508381 1.25382178 3.42040498 2.29934049 4.83984375 4.16796875 C4.94103268 6.95332723 4.33838583 9.40332632 3.83984375 12.16796875 C1.32088326 11.04843075 -0.5575028 9.84815323 -2.72265625 8.10546875 C-6.77539091 4.88406427 -10.52171432 4.76240893 -15.5234375 4.828125 C-20.59120444 5.48130385 -24.17083032 7.95386023 -27.54296875 11.70703125 C-30.78982783 16.49785129 -31.00449457 21.55663699 -30.16015625 27.16796875 C-28.81604751 31.98995884 -26.59715349 35.23247682 -22.53515625 38.16796875 C-16.25663015 41.66516647 -9.93653019 40.52324354 -3.16015625 39.16796875 C-3.16015625 35.20796875 -3.16015625 31.24796875 -3.16015625 27.16796875 C-7.45015625 27.16796875 -11.74015625 27.16796875 -16.16015625 27.16796875 C-16.16015625 24.85796875 -16.16015625 22.54796875 -16.16015625 20.16796875 C-9.56015625 20.16796875 -2.96015625 20.16796875 3.83984375 20.16796875 C3.83984375 27.75796875 3.83984375 35.34796875 3.83984375 43.16796875 C-4.4478679 47.90380398 -9.69587785 49.17157904 -19.16015625 48.16796875 C-27.50318635 45.64263856 -33.29741495 40.24282833 -37.53515625 32.73046875 C-39.61204893 24.21520874 -39.64693978 16.86522653 -35.47265625 8.98046875 C-26.16436813 -2.34042221 -13.69787436 -6.65762609 0 0 Z " fill="#F4F4F4" transform="translate(756.16015625,665.83203125)"/>
<path d="M0 0 C-0.33 2.97 -0.66 5.94 -1 9 C-5 7 -5 7 -7.5625 4.9375 C-11.61456799 1.71662545 -15.36169109 1.59104659 -20.36328125 1.6640625 C-24.76502364 2.22487709 -27.80316904 3.96522038 -31 7 C-34.45125658 11.48468369 -35.68514819 16.14418909 -35.375 21.765625 C-34.42109612 27.44930228 -32.11560263 31.58027816 -27.4375 35 C-21.31577341 38.42265389 -14.57945578 37.64486395 -8 36 C-8 32.04 -8 28.08 -8 24 C-12.29 24 -16.58 24 -21 24 C-21 21.69 -21 19.38 -21 17 C-14.4 17 -7.8 17 -1 17 C-1 24.59 -1 32.18 -1 40 C-9.51232041 44.86418309 -15.92796518 46.53694736 -25.66015625 44.421875 C-33.19137507 41.8610278 -38.56548551 36.7417341 -42.1953125 29.671875 C-44.17321557 23.10446868 -44.3267626 13.86646975 -41.5 7.5 C-37.76882233 1.46968116 -31.98936215 -3.43103344 -25.1953125 -5.5625 C-15.46500211 -7.50163659 -8.11527176 -5.41018118 0 0 Z " fill="#F4F4F4" transform="translate(609,669)"/>
<path d="M0 0 C1.2684375 0.556875 1.2684375 0.556875 2.5625 1.125 C4.43848922 3.57194246 4.0661204 4.67256065 3.75 7.6875 C3.52019671 9.12836665 3.27632268 10.56732696 3 12 C0.49677775 10.81482259 -1.37885493 9.69506799 -3.5625 7.9375 C-8.21423924 4.23996368 -13.29454579 4.38436588 -19 5 C-24.3302679 6.75999412 -27.35958144 10.12538112 -30 15 C-31.71537719 19.43139106 -31.66968081 24.05101862 -30.12890625 28.53515625 C-27.99158282 33.29332874 -25.94631144 37.19037426 -21.09375 39.45703125 C-15.04913205 41.0245721 -9.02729569 40.20545914 -3 39 C-3 35.04 -3 31.08 -3 27 C-7.62 27 -12.24 27 -17 27 C-17 24.69 -17 22.38 -17 20 C-10.4 20 -3.8 20 3 20 C3.10767427 23.77159047 3.18716451 27.5401264 3.25 31.3125 C3.30027344 32.9202832 3.30027344 32.9202832 3.3515625 34.56054688 C3.36445312 35.58857422 3.37734375 36.61660156 3.390625 37.67578125 C3.41157227 38.62364502 3.43251953 39.57150879 3.45410156 40.5480957 C3 43 3 43 1.16699219 44.75854492 C-5.61897126 48.6461772 -13.658846 49.1092449 -21.23828125 47.53515625 C-28.29486899 45.2194993 -33.24359786 40.82919584 -36.9375 34.4375 C-40.05909947 27.54094304 -40.36928654 20.38533619 -38.11328125 13.16015625 C-34.9231839 6.11226676 -30.33593081 1.26947236 -23.25 -1.875 C-15.23503269 -4.48452424 -7.49628543 -3.55087205 0 0 Z " fill="#F4F4F4" transform="translate(1257,666)"/>
<path d="M0 0 C6.69673055 5.58060879 6.69673055 5.58060879 9.4375 8.875 C11.70046902 11.53088013 14.00775156 14.05793106 16.5 16.5 C19.5849279 19.52959287 22.42576687 22.71516983 25.2265625 26.0078125 C27.38419153 28.43158079 29.7054395 30.7054395 32 33 C32.33 22.77 32.66 12.54 33 2 C35.31 2 37.62 2 40 2 C40 18.83 40 35.66 40 53 C36.638467 50.3107736 34.31676511 48.40772783 31.6875 45.25 C29.23043221 42.37187287 26.69934677 39.65235621 24 37 C20.73689631 33.78738921 17.70017167 30.44809316 14.73828125 26.95703125 C12.59432779 24.54327691 10.28284323 22.28284323 8 20 C7.67 30.23 7.34 40.46 7 51 C4.69 51 2.38 51 0 51 C0 34.17 0 17.34 0 0 Z " fill="#F5F5F5" transform="translate(659,662)"/>
<path d="M0 0 C28.03777336 0 28.03777336 0 35.4375 5.96484375 C35.953125 6.61582031 36.46875 7.26679687 37 7.9375 C37.53625 8.58589844 38.0725 9.23429688 38.625 9.90234375 C43.08887264 16.71228582 42.77800273 24.16264623 42 32 C39.90979052 38.89283032 35.23409551 43.56166522 29 47 C23 49 23 49 0 49 C0 32.83 0 16.66 0 0 Z M7 6 C7 18.21 7 30.42 7 43 C19.51274714 43.2060121 19.51274714 43.2060121 29.875 37.6875 C33.82747087 32.68878685 35.60767085 28.66825949 35.33984375 22.3046875 C34.62226413 17.43834293 32.93088807 13.62452587 29.12890625 10.42578125 C21.82709406 5.60851763 16.08481196 6 7 6 Z " fill="#F4F4F4" transform="translate(1043,664)"/>
<path d="M0 0 C20.65384615 0 20.65384615 0 25.8125 4.625 C27.63943895 8.27887789 27.54364959 11.9897017 27 16 C25.98046875 18.28125 25.98046875 18.28125 25 20 C25.42152344 20.4125 25.84304688 20.825 26.27734375 21.25 C29.77284624 24.93467086 31.90397694 27.79142701 32.1640625 32.953125 C31.73757338 38.27408456 30.06197231 42.41239685 26 45.9375 C17.43898162 51.82320014 13.16421536 49 0 49 C0 32.83 0 16.66 0 0 Z M8 6 C8 9.63 8 13.26 8 17 C14.39825263 17.47326369 14.39825263 17.47326369 20 15 C20.66680368 12.04279372 20.66680368 12.04279372 20 9 C17.02723853 6.29748957 15.21225709 6.01043887 11.1875 5.8125 C9.6096875 5.9053125 9.6096875 5.9053125 8 6 Z M8 23 C8 29.6 8 36.2 8 43 C14.77662699 43 16.50486983 42.90918656 22 40 C24.4486325 36.32705125 24.83183438 33.26731035 24 29 C21.46546343 25.78045355 19.88702695 24.29567565 16 23 C13.36 23 10.72 23 8 23 Z " fill="#F4F4F4" transform="translate(376,664)"/>
<path d="M0 0 C7.80524723 6.69021191 7.80524723 6.69021191 10.9375 10.3125 C15.3584249 15.32544441 19.91325178 20.20096262 24.5 25.0625 C25.21921631 25.8253833 25.93843262 26.5882666 26.67944336 27.37426758 C29.80796316 30.71781331 29.80796316 30.71781331 33 34 C33.33 23.44 33.66 12.88 34 2 C35.98 2 37.96 2 40 2 C40 18.83 40 35.66 40 53 C38.35 51.35 36.7 49.7 35 48 C33.97226621 46.98215119 32.94375718 45.9650838 31.9140625 44.94921875 C22.03191822 35.16235276 22.03191822 35.16235276 18.125 30.625 C14.93066162 26.91956748 11.4593372 23.4593372 8 20 C7.67 30.23 7.34 40.46 7 51 C4.69 51 2.38 51 0 51 C0 34.17 0 17.34 0 0 Z " fill="#F4F4F4" transform="translate(1281,662)"/>
<path d="M0 0 C7.80524723 6.69021191 7.80524723 6.69021191 10.9375 10.3125 C15.3584249 15.32544441 19.91325178 20.20096262 24.5 25.0625 C25.21921631 25.8253833 25.93843262 26.5882666 26.67944336 27.37426758 C29.80796316 30.71781331 29.80796316 30.71781331 33 34 C33.33 23.44 33.66 12.88 34 2 C35.98 2 37.96 2 40 2 C40 18.83 40 35.66 40 53 C38.35 51.35 36.7 49.7 35 48 C33.97226621 46.98215119 32.94375718 45.9650838 31.9140625 44.94921875 C22.03191822 35.16235276 22.03191822 35.16235276 18.125 30.625 C14.93066162 26.91956748 11.4593372 23.4593372 8 20 C7.67 30.23 7.34 40.46 7 51 C4.69 51 2.38 51 0 51 C0 34.17 0 17.34 0 0 Z " fill="#F4F4F4" transform="translate(507,662)"/>
<path d="M0 0 C19.85714286 0 19.85714286 0 25.8125 5.75 C27.55707541 9.0555113 28.12819903 12.30359456 28 16 C26.63009761 19.63024132 25.0888056 22.58267388 22 25 C21.34 25 20.68 25 20 25 C20.74765625 26.08539062 21.4953125 27.17078125 22.265625 28.2890625 C23.26043961 29.7343592 24.25523 31.17967259 25.25 32.625 C25.74113281 33.33785156 26.23226563 34.05070313 26.73828125 34.78515625 C27.70699438 36.19301933 28.67382439 37.60218018 29.63867188 39.01269531 C30.50423447 40.27626768 31.37478374 41.53644943 32.25195312 42.79199219 C35 46.77835648 35 46.77835648 35 49 C31.9109539 49.44177041 29.97741434 49.70213851 27 49 C24.31334326 46.63435229 22.56477806 43.77628049 20.6875 40.75 C20.17638672 39.97269531 19.66527344 39.19539062 19.13867188 38.39453125 C18.18460982 36.94296739 17.24201914 35.48374732 16.31518555 34.01464844 C15.6641687 33.01739746 15.6641687 33.01739746 15 32 C14.55374268 31.27586914 14.10748535 30.55173828 13.64770508 29.80566406 C11.82665774 27.45214397 11.82665774 27.45214397 7 27 C7 34.26 7 41.52 7 49 C4.69 49 2.38 49 0 49 C0 32.83 0 16.66 0 0 Z M7 6 C7 10.95 7 15.9 7 21 C11.09806991 21.20837644 14.07163509 21.33579156 17.9375 19.9375 C20.29778431 18.04002855 20.29778431 18.04002855 21.0625 14.5625 C21.34364141 10.98646679 21.34364141 10.98646679 19.25 8.625 C14.90652793 5.48804795 12.7564772 6 7 6 Z " fill="#F4F4F4" transform="translate(426,664)"/>
<path d="M0 0 C19.85714286 0 19.85714286 0 25.8125 5.75 C27.55707541 9.0555113 28.12819903 12.30359456 28 16 C26.63009761 19.63024132 25.0888056 22.58267388 22 25 C21.34 25 20.68 25 20 25 C20.6815918 25.98395752 20.6815918 25.98395752 21.37695312 26.98779297 C23.42278225 29.94690119 25.4614663 32.91086181 27.5 35.875 C28.21542969 36.90753906 28.93085937 37.94007813 29.66796875 39.00390625 C30.34472656 39.99003906 31.02148438 40.97617187 31.71875 41.9921875 C32.34716797 42.90339355 32.97558594 43.81459961 33.62304688 44.75341797 C35 47 35 47 35 49 C31.79244778 49.560612 30.07391604 49.84039906 27 49 C23.9050802 46.10885462 21.76311189 42.68478759 19.5 39.125 C18.55253906 37.71927734 18.55253906 37.71927734 17.5859375 36.28515625 C13 29.38639746 13 29.38639746 13 27 C11.02 27 9.04 27 7 27 C7 34.26 7 41.52 7 49 C4.69 49 2.38 49 0 49 C0 32.83 0 16.66 0 0 Z M7 6 C7 10.95 7 15.9 7 21 C11.09806991 21.20837644 14.07163509 21.33579156 17.9375 19.9375 C20.29778431 18.04002855 20.29778431 18.04002855 21.0625 14.5625 C21.34364141 10.98646679 21.34364141 10.98646679 19.25 8.625 C14.90652793 5.48804795 12.7564772 6 7 6 Z " fill="#F4F4F4" transform="translate(967,664)"/>
<path d="M0 0 C2.31 0 4.62 0 7 0 C7.00410889 1.09465576 7.00821777 2.18931152 7.01245117 3.31713867 C7.03427052 7.38971645 7.08858831 11.46133191 7.15258789 15.53344727 C7.17574364 17.29376991 7.19015794 19.05423061 7.19555664 20.81469727 C7.20486442 23.34999379 7.24589048 25.88312628 7.29296875 28.41796875 C7.2890361 29.20149216 7.28510345 29.98501556 7.28105164 30.7922821 C7.39239802 34.98916455 7.66891529 36.57891568 10.35668945 39.99731445 C12.86599139 42.19570001 12.86599139 42.19570001 16 42.625 C20.11380719 41.76795684 21.41257294 40.29077407 24 37 C24.72173326 34.1364386 24.72180033 31.36049495 24.70703125 28.41796875 C24.72215256 27.60378983 24.73727386 26.7896109 24.75285339 25.95075989 C24.79567437 23.36272364 24.80456247 20.77585495 24.8125 18.1875 C24.83564883 16.42770346 24.86101498 14.66793459 24.88867188 12.90820312 C24.95146832 8.60536581 24.98384735 4.303255 25 0 C27.31 0 29.62 0 32 0 C32.07438973 5.30188966 32.12871511 10.60347268 32.16479492 15.90576172 C32.1798424 17.70789892 32.2002853 19.50999973 32.22631836 21.31201172 C32.26288021 23.90862021 32.27976681 26.50474275 32.29296875 29.1015625 C32.30845261 29.9017984 32.32393646 30.7020343 32.33988953 31.52651978 C32.34180028 37.93808495 30.84191373 41.97838737 26.4375 46.8125 C22.4147765 49.90459344 17.95412859 50.27479319 13 50 C7.68858707 48.76033436 3.99105384 45.86163969 0.90673828 41.42871094 C-0.49065884 37.68576356 -0.24443128 34.03915901 -0.1953125 30.078125 C-0.1924826 29.21813904 -0.18965271 28.35815308 -0.18673706 27.47210693 C-0.1755615 24.73126179 -0.15046179 21.99074602 -0.125 19.25 C-0.1149668 17.38932764 -0.10584155 15.52865015 -0.09765625 13.66796875 C-0.07563076 9.11185268 -0.04111897 4.55598214 0 0 Z " fill="#F3F3F3" transform="translate(914,664)"/>
<path d="M0 0 C0.61875 0.474375 1.2375 0.94875 1.875 1.4375 C1.215 4.4075 0.555 7.3775 -0.125 10.4375 C-1.135625 9.6125 -2.14625 8.7875 -3.1875 7.9375 C-6.8900108 5.28854919 -9.53038062 4.71677539 -14.125 5.4375 C-16.3132888 8.16721446 -16.3132888 8.16721446 -16.25 10.8125 C-14.47393294 14.95665648 -10.94914835 16.30439707 -7.125 18.4375 C2.17581301 24.33993902 2.17581301 24.33993902 3.875 29.4375 C4.24117651 35.02169173 4.1296741 38.66397798 0.875 43.4375 C-3.68738077 47.45674021 -8.15083878 48.70997019 -14.125 48.4375 C-18.46554759 47.45032685 -22.3631459 46.0769526 -25.125 42.4375 C-25.22618893 39.65214152 -24.62354208 37.20214243 -24.125 34.4375 C-21.58095798 35.56818534 -19.88641473 36.65674052 -17.8125 38.5625 C-14.30572577 41.00908667 -12.31881929 41.04751008 -8.125 40.4375 C-5.4780128 39.04064994 -5.4780128 39.04064994 -4.125 36.4375 C-3.94825251 32.96561883 -3.94825251 32.96561883 -5.125 29.4375 C-7.47362878 27.65400053 -9.33115918 26.48899418 -11.9375 25.25 C-22.24805328 20.06834016 -22.24805328 20.06834016 -24.125 14.4375 C-24.50604982 9.78869216 -24.56172542 7.36335789 -22.5625 3.125 C-16.35046315 -3.72416884 -8.0490724 -4.0245362 0 0 Z " fill="#F4F4F4" transform="translate(1169.125,665.5625)"/>
<path d="M0 0 C8.25 0 16.5 0 25 0 C25 1.98 25 3.96 25 6 C19.06 6 13.12 6 7 6 C7 9.3 7 12.6 7 16 C11.62 16 16.24 16 21 16 C21 17.98 21 19.96 21 22 C16.38 22 11.76 22 7 22 C7 28.93 7 35.86 7 43 C12.94 43 18.88 43 25 43 C25 44.98 25 46.96 25 49 C16.75 49 8.5 49 0 49 C0 32.83 0 16.66 0 0 Z " fill="#F4F4F4" transform="translate(1614,664)"/>
<path d="M0 0 C7.92 0 15.84 0 24 0 C24 1.98 24 3.96 24 6 C18.39 6 12.78 6 7 6 C7 9.3 7 12.6 7 16 C11.62 16 16.24 16 21 16 C21 17.98 21 19.96 21 22 C16.38 22 11.76 22 7 22 C7 28.93 7 35.86 7 43 C12.61 43 18.22 43 24 43 C24 44.98 24 46.96 24 49 C16.08 49 8.16 49 0 49 C0 32.83 0 16.66 0 0 Z " fill="#F3F3F3" transform="translate(1104,664)"/>
<path d="M0 0 C1.00023193 0.00523682 2.00046387 0.01047363 3.03100586 0.01586914 C4.1105957 0.0190918 5.19018555 0.02231445 6.30249023 0.02563477 C8.00695313 0.03820312 8.00695313 0.03820312 9.74584961 0.05102539 C11.45611328 0.05779297 11.45611328 0.05779297 13.20092773 0.06469727 C16.02845312 0.07652792 18.85587601 0.09301129 21.68334961 0.11352539 C21.68334961 2.09352539 21.68334961 4.07352539 21.68334961 6.11352539 C16.07334961 6.11352539 10.46334961 6.11352539 4.68334961 6.11352539 C4.68334961 9.41352539 4.68334961 12.71352539 4.68334961 16.11352539 C9.96334961 16.11352539 15.24334961 16.11352539 20.68334961 16.11352539 C20.68334961 18.09352539 20.68334961 20.07352539 20.68334961 22.11352539 C15.40334961 22.11352539 10.12334961 22.11352539 4.68334961 22.11352539 C4.68334961 31.02352539 4.68334961 39.93352539 4.68334961 49.11352539 C2.37334961 49.11352539 0.06334961 49.11352539 -2.31665039 49.11352539 C-3.90347028 47.5267055 -3.44393575 45.90104193 -3.44604492 43.70141602 C-3.45077316 42.29490784 -3.45077316 42.29490784 -3.45559692 40.85998535 C-3.45357269 39.84021606 -3.45154846 38.82044678 -3.44946289 37.76977539 C-3.45041962 36.7303479 -3.45137634 35.69092041 -3.45236206 34.61999512 C-3.45304402 32.41747985 -3.45118866 30.2149626 -3.44702148 28.01245117 C-3.44167347 24.6281282 -3.44696598 21.24393795 -3.45336914 17.85961914 C-3.45270836 15.72550426 -3.45142721 13.59138947 -3.44946289 11.45727539 C-3.45148712 10.4375061 -3.45351135 9.41773682 -3.45559692 8.36706543 C-3.45244476 7.42939331 -3.4492926 6.49172119 -3.44604492 5.52563477 C-3.44524933 4.69592163 -3.44445374 3.8662085 -3.44363403 3.01135254 C-3.25369 0.1725543 -2.844851 0.13940939 0 0 Z " fill="#F5F5F5" transform="translate(1575.316650390625,663.886474609375)"/>
<path d="M0 0 C5.02239474 -0.77933712 5.02239474 -0.77933712 8 0 C10.64556233 2.6395769 12.28278201 5.70273824 14 9 C14.41507813 9.78503906 14.83015625 10.57007813 15.2578125 11.37890625 C16.2073735 13.23486639 17.10901301 15.11521982 18 17 C21.3989636 11.36905031 24.76352732 5.72606705 28 0 C30.64 0 33.28 0 36 0 C34.9136917 3.30445877 33.41535697 5.94271184 31.43359375 8.765625 C22.49305054 21.90719996 21.34865432 33.31198388 22 49 C19.69 49 17.38 49 15 49 C15.03778564 48.4237085 15.07557129 47.84741699 15.11450195 47.25366211 C15.96436065 30.25145934 11.65253774 19.16315681 2.29101562 5.08691406 C1 3 1 3 0 0 Z " fill="#F4F4F4" transform="translate(800,664)"/>
<path d="M0 0 C10.89 0 21.78 0 33 0 C33 1.98 33 3.96 33 6 C28.71 6 24.42 6 20 6 C20 20.19 20 34.38 20 49 C17.69 49 15.38 49 13 49 C13 34.81 13 20.62 13 6 C8.71 6 4.42 6 0 6 C0 4.02 0 2.04 0 0 Z " fill="#F3F3F3" transform="translate(1364,664)"/>
<path d="M0 0 C2.31 0 4.62 0 7 0 C7 14.19 7 28.38 7 43 C12.61 43 18.22 43 24 43 C24 44.98 24 46.96 24 49 C16.08 49 8.16 49 0 49 C0 32.83 0 16.66 0 0 Z " fill="#F3F3F3" transform="translate(1501,664)"/>
<path d="M0 0 C2.64 0 5.28 0 8 0 C8 16.17 8 32.34 8 49 C5.36 49 2.72 49 0 49 C0 32.83 0 16.66 0 0 Z " fill="#F5F5F5" transform="translate(477,664)"/>
<path d="M0 0 C2.31 0 4.62 0 7 0 C7 16.17 7 32.34 7 49 C4.69 49 2.38 49 0 49 C0 32.83 0 16.66 0 0 Z " fill="#F3F3F3" transform="translate(1543,664)"/>
<path d="M0 0 C2.31 0 4.62 0 7 0 C7 16.17 7 32.34 7 49 C4.69 49 2.38 49 0 49 C0 32.83 0 16.66 0 0 Z " fill="#F3F3F3" transform="translate(1192,664)"/>
<path d="M0 0 C2.31 0 4.62 0 7 0 C7 16.17 7 32.34 7 49 C4.69 49 2.38 49 0 49 C0 32.83 0 16.66 0 0 Z " fill="#F4F4F4" transform="translate(629,664)"/>
</svg>
